<mxfile host="Electron" agent="Mozilla/5.0 (Windows NT 10.0; Win64; x64) AppleWebKit/537.36 (KHTML, like Gecko) draw.io/25.0.2 Chrome/128.0.6613.186 Electron/32.2.5 Safari/537.36" version="25.0.2" pages="2">
  <diagram name="Page-1" id="mTxTX1uwQ9WrilYPRBvI">
    <mxGraphModel dx="1235" dy="827" grid="1" gridSize="10" guides="1" tooltips="1" connect="1" arrows="1" fold="1" page="1" pageScale="1" pageWidth="850" pageHeight="1100" math="0" shadow="0">
      <root>
        <mxCell id="0" />
        <mxCell id="1" parent="0" />
        <mxCell id="uBOc1RX5nlmYOmLGZq0Z-608" value="" style="rounded=0;whiteSpace=wrap;html=1;strokeColor=none;" vertex="1" parent="1">
          <mxGeometry x="960" y="1150" width="720" height="70" as="geometry" />
        </mxCell>
        <mxCell id="uBOc1RX5nlmYOmLGZq0Z-2" value="" style="rounded=0;whiteSpace=wrap;html=1;strokeColor=none;" vertex="1" parent="1">
          <mxGeometry x="40" y="190" width="720" height="70" as="geometry" />
        </mxCell>
        <mxCell id="Ov3-WmgUpHSjwIFoTu-C-1" value="2" style="rounded=0;whiteSpace=wrap;html=1;fontSize=18;fontFamily=Times New Roman;" parent="1" vertex="1">
          <mxGeometry x="240" y="200" width="40" height="40" as="geometry" />
        </mxCell>
        <mxCell id="Ov3-WmgUpHSjwIFoTu-C-2" value="5" style="rounded=0;whiteSpace=wrap;html=1;fontSize=18;fontFamily=Times New Roman;" parent="1" vertex="1">
          <mxGeometry x="280" y="200" width="40" height="40" as="geometry" />
        </mxCell>
        <mxCell id="Ov3-WmgUpHSjwIFoTu-C-3" value="3" style="rounded=0;whiteSpace=wrap;html=1;fontSize=18;fontFamily=Times New Roman;" parent="1" vertex="1">
          <mxGeometry x="320" y="200" width="40" height="40" as="geometry" />
        </mxCell>
        <mxCell id="Ov3-WmgUpHSjwIFoTu-C-4" value="0" style="rounded=0;whiteSpace=wrap;html=1;fontSize=18;fontFamily=Times New Roman;" parent="1" vertex="1">
          <mxGeometry x="360" y="200" width="40" height="40" as="geometry" />
        </mxCell>
        <mxCell id="Ov3-WmgUpHSjwIFoTu-C-5" value="2" style="rounded=0;whiteSpace=wrap;html=1;fontSize=18;fontFamily=Times New Roman;" parent="1" vertex="1">
          <mxGeometry x="400" y="200" width="40" height="40" as="geometry" />
        </mxCell>
        <mxCell id="Ov3-WmgUpHSjwIFoTu-C-6" value="3" style="rounded=0;whiteSpace=wrap;html=1;fontSize=18;fontFamily=Times New Roman;" parent="1" vertex="1">
          <mxGeometry x="440" y="200" width="40" height="40" as="geometry" />
        </mxCell>
        <mxCell id="Ov3-WmgUpHSjwIFoTu-C-7" value="0" style="rounded=0;whiteSpace=wrap;html=1;fontSize=18;fontFamily=Times New Roman;" parent="1" vertex="1">
          <mxGeometry x="480" y="200" width="40" height="40" as="geometry" />
        </mxCell>
        <mxCell id="Ov3-WmgUpHSjwIFoTu-C-8" value="3" style="rounded=0;whiteSpace=wrap;html=1;fontSize=18;fontFamily=Times New Roman;" parent="1" vertex="1">
          <mxGeometry x="520" y="200" width="40" height="40" as="geometry" />
        </mxCell>
        <mxCell id="Ov3-WmgUpHSjwIFoTu-C-9" value="0" style="text;html=1;align=center;verticalAlign=middle;whiteSpace=wrap;rounded=0;fontFamily=Times New Roman;fontSize=14;" parent="1" vertex="1">
          <mxGeometry x="240" y="240" width="40" height="20" as="geometry" />
        </mxCell>
        <mxCell id="Ov3-WmgUpHSjwIFoTu-C-10" value="1" style="text;html=1;align=center;verticalAlign=middle;whiteSpace=wrap;rounded=0;fontFamily=Times New Roman;fontSize=14;" parent="1" vertex="1">
          <mxGeometry x="280" y="240" width="40" height="20" as="geometry" />
        </mxCell>
        <mxCell id="Ov3-WmgUpHSjwIFoTu-C-11" value="2" style="text;html=1;align=center;verticalAlign=middle;whiteSpace=wrap;rounded=0;fontFamily=Times New Roman;fontSize=14;" parent="1" vertex="1">
          <mxGeometry x="320" y="240" width="40" height="20" as="geometry" />
        </mxCell>
        <mxCell id="Ov3-WmgUpHSjwIFoTu-C-12" value="3" style="text;html=1;align=center;verticalAlign=middle;whiteSpace=wrap;rounded=0;fontFamily=Times New Roman;fontSize=14;" parent="1" vertex="1">
          <mxGeometry x="360" y="240" width="40" height="20" as="geometry" />
        </mxCell>
        <mxCell id="Ov3-WmgUpHSjwIFoTu-C-13" value="4" style="text;html=1;align=center;verticalAlign=middle;whiteSpace=wrap;rounded=0;fontFamily=Times New Roman;fontSize=14;" parent="1" vertex="1">
          <mxGeometry x="400" y="240" width="40" height="20" as="geometry" />
        </mxCell>
        <mxCell id="Ov3-WmgUpHSjwIFoTu-C-14" value="5" style="text;html=1;align=center;verticalAlign=middle;whiteSpace=wrap;rounded=0;fontFamily=Times New Roman;fontSize=14;" parent="1" vertex="1">
          <mxGeometry x="440" y="240" width="40" height="20" as="geometry" />
        </mxCell>
        <mxCell id="Ov3-WmgUpHSjwIFoTu-C-15" value="6" style="text;html=1;align=center;verticalAlign=middle;whiteSpace=wrap;rounded=0;fontFamily=Times New Roman;fontSize=14;" parent="1" vertex="1">
          <mxGeometry x="480" y="240" width="40" height="20" as="geometry" />
        </mxCell>
        <mxCell id="Ov3-WmgUpHSjwIFoTu-C-16" value="7" style="text;html=1;align=center;verticalAlign=middle;whiteSpace=wrap;rounded=0;fontFamily=Times New Roman;fontSize=14;" parent="1" vertex="1">
          <mxGeometry x="520" y="240" width="40" height="20" as="geometry" />
        </mxCell>
        <mxCell id="uBOc1RX5nlmYOmLGZq0Z-1" value="Input Array" style="rounded=1;whiteSpace=wrap;html=1;fontFamily=Times New Roman;fontSize=18;" vertex="1" parent="1">
          <mxGeometry x="40" y="200" width="120" height="40" as="geometry" />
        </mxCell>
        <mxCell id="uBOc1RX5nlmYOmLGZq0Z-46" value="" style="group" vertex="1" connectable="0" parent="1">
          <mxGeometry x="40" y="290" width="720" height="70" as="geometry" />
        </mxCell>
        <mxCell id="uBOc1RX5nlmYOmLGZq0Z-3" value="" style="rounded=0;whiteSpace=wrap;html=1;strokeColor=none;" vertex="1" parent="uBOc1RX5nlmYOmLGZq0Z-46">
          <mxGeometry width="720" height="70" as="geometry" />
        </mxCell>
        <mxCell id="uBOc1RX5nlmYOmLGZq0Z-4" value="2" style="rounded=0;whiteSpace=wrap;html=1;fontSize=18;fontFamily=Times New Roman;" vertex="1" parent="uBOc1RX5nlmYOmLGZq0Z-46">
          <mxGeometry x="200" y="10" width="40" height="40" as="geometry" />
        </mxCell>
        <mxCell id="uBOc1RX5nlmYOmLGZq0Z-5" value="5" style="rounded=0;whiteSpace=wrap;html=1;fontSize=18;fontFamily=Times New Roman;" vertex="1" parent="uBOc1RX5nlmYOmLGZq0Z-46">
          <mxGeometry x="240" y="10" width="40" height="40" as="geometry" />
        </mxCell>
        <mxCell id="uBOc1RX5nlmYOmLGZq0Z-6" value="3" style="rounded=0;whiteSpace=wrap;html=1;fontSize=18;fontFamily=Times New Roman;" vertex="1" parent="uBOc1RX5nlmYOmLGZq0Z-46">
          <mxGeometry x="280" y="10" width="40" height="40" as="geometry" />
        </mxCell>
        <mxCell id="uBOc1RX5nlmYOmLGZq0Z-7" value="0" style="rounded=0;whiteSpace=wrap;html=1;fontSize=18;fontFamily=Times New Roman;" vertex="1" parent="uBOc1RX5nlmYOmLGZq0Z-46">
          <mxGeometry x="320" y="10" width="40" height="40" as="geometry" />
        </mxCell>
        <mxCell id="uBOc1RX5nlmYOmLGZq0Z-8" value="2" style="rounded=0;whiteSpace=wrap;html=1;fontSize=18;fontFamily=Times New Roman;" vertex="1" parent="uBOc1RX5nlmYOmLGZq0Z-46">
          <mxGeometry x="360" y="10" width="40" height="40" as="geometry" />
        </mxCell>
        <mxCell id="uBOc1RX5nlmYOmLGZq0Z-9" value="3" style="rounded=0;whiteSpace=wrap;html=1;fontSize=18;fontFamily=Times New Roman;" vertex="1" parent="uBOc1RX5nlmYOmLGZq0Z-46">
          <mxGeometry x="400" y="10" width="40" height="40" as="geometry" />
        </mxCell>
        <mxCell id="uBOc1RX5nlmYOmLGZq0Z-10" value="0" style="rounded=0;whiteSpace=wrap;html=1;fontSize=18;fontFamily=Times New Roman;" vertex="1" parent="uBOc1RX5nlmYOmLGZq0Z-46">
          <mxGeometry x="440" y="10" width="40" height="40" as="geometry" />
        </mxCell>
        <mxCell id="uBOc1RX5nlmYOmLGZq0Z-11" value="3" style="rounded=0;whiteSpace=wrap;html=1;fontSize=18;fontFamily=Times New Roman;" vertex="1" parent="uBOc1RX5nlmYOmLGZq0Z-46">
          <mxGeometry x="480" y="10" width="40" height="40" as="geometry" />
        </mxCell>
        <mxCell id="uBOc1RX5nlmYOmLGZq0Z-12" value="0" style="text;html=1;align=center;verticalAlign=middle;whiteSpace=wrap;rounded=0;fontFamily=Times New Roman;fontSize=14;" vertex="1" parent="uBOc1RX5nlmYOmLGZq0Z-46">
          <mxGeometry x="200" y="50" width="40" height="20" as="geometry" />
        </mxCell>
        <mxCell id="uBOc1RX5nlmYOmLGZq0Z-13" value="1" style="text;html=1;align=center;verticalAlign=middle;whiteSpace=wrap;rounded=0;fontFamily=Times New Roman;fontSize=14;" vertex="1" parent="uBOc1RX5nlmYOmLGZq0Z-46">
          <mxGeometry x="240" y="50" width="40" height="20" as="geometry" />
        </mxCell>
        <mxCell id="uBOc1RX5nlmYOmLGZq0Z-14" value="2" style="text;html=1;align=center;verticalAlign=middle;whiteSpace=wrap;rounded=0;fontFamily=Times New Roman;fontSize=14;" vertex="1" parent="uBOc1RX5nlmYOmLGZq0Z-46">
          <mxGeometry x="280" y="50" width="40" height="20" as="geometry" />
        </mxCell>
        <mxCell id="uBOc1RX5nlmYOmLGZq0Z-15" value="3" style="text;html=1;align=center;verticalAlign=middle;whiteSpace=wrap;rounded=0;fontFamily=Times New Roman;fontSize=14;" vertex="1" parent="uBOc1RX5nlmYOmLGZq0Z-46">
          <mxGeometry x="320" y="50" width="40" height="20" as="geometry" />
        </mxCell>
        <mxCell id="uBOc1RX5nlmYOmLGZq0Z-16" value="4" style="text;html=1;align=center;verticalAlign=middle;whiteSpace=wrap;rounded=0;fontFamily=Times New Roman;fontSize=14;" vertex="1" parent="uBOc1RX5nlmYOmLGZq0Z-46">
          <mxGeometry x="360" y="50" width="40" height="20" as="geometry" />
        </mxCell>
        <mxCell id="uBOc1RX5nlmYOmLGZq0Z-17" value="5" style="text;html=1;align=center;verticalAlign=middle;whiteSpace=wrap;rounded=0;fontFamily=Times New Roman;fontSize=14;" vertex="1" parent="uBOc1RX5nlmYOmLGZq0Z-46">
          <mxGeometry x="400" y="50" width="40" height="20" as="geometry" />
        </mxCell>
        <mxCell id="uBOc1RX5nlmYOmLGZq0Z-18" value="6" style="text;html=1;align=center;verticalAlign=middle;whiteSpace=wrap;rounded=0;fontFamily=Times New Roman;fontSize=14;" vertex="1" parent="uBOc1RX5nlmYOmLGZq0Z-46">
          <mxGeometry x="440" y="50" width="40" height="20" as="geometry" />
        </mxCell>
        <mxCell id="uBOc1RX5nlmYOmLGZq0Z-19" value="7" style="text;html=1;align=center;verticalAlign=middle;whiteSpace=wrap;rounded=0;fontFamily=Times New Roman;fontSize=14;" vertex="1" parent="uBOc1RX5nlmYOmLGZq0Z-46">
          <mxGeometry x="480" y="50" width="40" height="20" as="geometry" />
        </mxCell>
        <mxCell id="uBOc1RX5nlmYOmLGZq0Z-20" value="Input Array" style="rounded=1;whiteSpace=wrap;html=1;fontFamily=Times New Roman;fontSize=18;" vertex="1" parent="uBOc1RX5nlmYOmLGZq0Z-46">
          <mxGeometry y="10" width="120" height="40" as="geometry" />
        </mxCell>
        <mxCell id="uBOc1RX5nlmYOmLGZq0Z-22" value="5" style="rounded=0;whiteSpace=wrap;html=1;fontSize=18;fontFamily=Times New Roman;fillColor=#CCFFCC;" vertex="1" parent="uBOc1RX5nlmYOmLGZq0Z-46">
          <mxGeometry x="560" y="10" width="40" height="40" as="geometry" />
        </mxCell>
        <mxCell id="uBOc1RX5nlmYOmLGZq0Z-23" value="max" style="text;html=1;align=center;verticalAlign=middle;whiteSpace=wrap;rounded=0;fontFamily=Times New Roman;fontSize=14;" vertex="1" parent="uBOc1RX5nlmYOmLGZq0Z-46">
          <mxGeometry x="560" y="50" width="40" height="20" as="geometry" />
        </mxCell>
        <mxCell id="uBOc1RX5nlmYOmLGZq0Z-47" value="" style="group" vertex="1" connectable="0" parent="1">
          <mxGeometry x="40" y="370" width="720" height="70" as="geometry" />
        </mxCell>
        <mxCell id="uBOc1RX5nlmYOmLGZq0Z-24" value="" style="rounded=0;whiteSpace=wrap;html=1;strokeColor=none;" vertex="1" parent="uBOc1RX5nlmYOmLGZq0Z-47">
          <mxGeometry width="720" height="70" as="geometry" />
        </mxCell>
        <mxCell id="uBOc1RX5nlmYOmLGZq0Z-25" value="0" style="rounded=0;whiteSpace=wrap;html=1;fontSize=18;fontFamily=Times New Roman;" vertex="1" parent="uBOc1RX5nlmYOmLGZq0Z-47">
          <mxGeometry x="200" y="10" width="40" height="40" as="geometry" />
        </mxCell>
        <mxCell id="uBOc1RX5nlmYOmLGZq0Z-26" value="0" style="rounded=0;whiteSpace=wrap;html=1;fontSize=18;fontFamily=Times New Roman;" vertex="1" parent="uBOc1RX5nlmYOmLGZq0Z-47">
          <mxGeometry x="240" y="10" width="40" height="40" as="geometry" />
        </mxCell>
        <mxCell id="uBOc1RX5nlmYOmLGZq0Z-27" value="0" style="rounded=0;whiteSpace=wrap;html=1;fontSize=18;fontFamily=Times New Roman;" vertex="1" parent="uBOc1RX5nlmYOmLGZq0Z-47">
          <mxGeometry x="280" y="10" width="40" height="40" as="geometry" />
        </mxCell>
        <mxCell id="uBOc1RX5nlmYOmLGZq0Z-28" value="0" style="rounded=0;whiteSpace=wrap;html=1;fontSize=18;fontFamily=Times New Roman;" vertex="1" parent="uBOc1RX5nlmYOmLGZq0Z-47">
          <mxGeometry x="320" y="10" width="40" height="40" as="geometry" />
        </mxCell>
        <mxCell id="uBOc1RX5nlmYOmLGZq0Z-29" value="0" style="rounded=0;whiteSpace=wrap;html=1;fontSize=18;fontFamily=Times New Roman;" vertex="1" parent="uBOc1RX5nlmYOmLGZq0Z-47">
          <mxGeometry x="360" y="10" width="40" height="40" as="geometry" />
        </mxCell>
        <mxCell id="uBOc1RX5nlmYOmLGZq0Z-33" value="0" style="text;html=1;align=center;verticalAlign=middle;whiteSpace=wrap;rounded=0;fontFamily=Times New Roman;fontSize=14;" vertex="1" parent="uBOc1RX5nlmYOmLGZq0Z-47">
          <mxGeometry x="200" y="50" width="40" height="20" as="geometry" />
        </mxCell>
        <mxCell id="uBOc1RX5nlmYOmLGZq0Z-34" value="1" style="text;html=1;align=center;verticalAlign=middle;whiteSpace=wrap;rounded=0;fontFamily=Times New Roman;fontSize=14;" vertex="1" parent="uBOc1RX5nlmYOmLGZq0Z-47">
          <mxGeometry x="240" y="50" width="40" height="20" as="geometry" />
        </mxCell>
        <mxCell id="uBOc1RX5nlmYOmLGZq0Z-35" value="2" style="text;html=1;align=center;verticalAlign=middle;whiteSpace=wrap;rounded=0;fontFamily=Times New Roman;fontSize=14;" vertex="1" parent="uBOc1RX5nlmYOmLGZq0Z-47">
          <mxGeometry x="280" y="50" width="40" height="20" as="geometry" />
        </mxCell>
        <mxCell id="uBOc1RX5nlmYOmLGZq0Z-36" value="3" style="text;html=1;align=center;verticalAlign=middle;whiteSpace=wrap;rounded=0;fontFamily=Times New Roman;fontSize=14;" vertex="1" parent="uBOc1RX5nlmYOmLGZq0Z-47">
          <mxGeometry x="320" y="50" width="40" height="20" as="geometry" />
        </mxCell>
        <mxCell id="uBOc1RX5nlmYOmLGZq0Z-37" value="4" style="text;html=1;align=center;verticalAlign=middle;whiteSpace=wrap;rounded=0;fontFamily=Times New Roman;fontSize=14;" vertex="1" parent="uBOc1RX5nlmYOmLGZq0Z-47">
          <mxGeometry x="360" y="50" width="40" height="20" as="geometry" />
        </mxCell>
        <mxCell id="uBOc1RX5nlmYOmLGZq0Z-41" value="Count Array" style="rounded=1;whiteSpace=wrap;html=1;fontFamily=Times New Roman;fontSize=18;" vertex="1" parent="uBOc1RX5nlmYOmLGZq0Z-47">
          <mxGeometry y="10" width="120" height="40" as="geometry" />
        </mxCell>
        <mxCell id="uBOc1RX5nlmYOmLGZq0Z-42" value="5" style="rounded=0;whiteSpace=wrap;html=1;fontSize=18;fontFamily=Times New Roman;fillColor=#CCFFCC;" vertex="1" parent="uBOc1RX5nlmYOmLGZq0Z-47">
          <mxGeometry x="560" y="10" width="40" height="40" as="geometry" />
        </mxCell>
        <mxCell id="uBOc1RX5nlmYOmLGZq0Z-43" value="max" style="text;html=1;align=center;verticalAlign=middle;whiteSpace=wrap;rounded=0;fontFamily=Times New Roman;fontSize=14;" vertex="1" parent="uBOc1RX5nlmYOmLGZq0Z-47">
          <mxGeometry x="560" y="50" width="40" height="20" as="geometry" />
        </mxCell>
        <mxCell id="uBOc1RX5nlmYOmLGZq0Z-44" value="0" style="rounded=0;whiteSpace=wrap;html=1;fontSize=18;fontFamily=Times New Roman;" vertex="1" parent="uBOc1RX5nlmYOmLGZq0Z-47">
          <mxGeometry x="400" y="10" width="40" height="40" as="geometry" />
        </mxCell>
        <mxCell id="uBOc1RX5nlmYOmLGZq0Z-45" value="5" style="text;html=1;align=center;verticalAlign=middle;whiteSpace=wrap;rounded=0;fontFamily=Times New Roman;fontSize=14;" vertex="1" parent="uBOc1RX5nlmYOmLGZq0Z-47">
          <mxGeometry x="400" y="50" width="40" height="20" as="geometry" />
        </mxCell>
        <mxCell id="uBOc1RX5nlmYOmLGZq0Z-49" value="" style="rounded=0;whiteSpace=wrap;html=1;strokeColor=none;" vertex="1" parent="1">
          <mxGeometry x="40" y="450" width="720" height="70" as="geometry" />
        </mxCell>
        <mxCell id="uBOc1RX5nlmYOmLGZq0Z-50" value="2" style="rounded=0;whiteSpace=wrap;html=1;fontSize=18;fontFamily=Times New Roman;" vertex="1" parent="1">
          <mxGeometry x="240" y="460" width="40" height="40" as="geometry" />
        </mxCell>
        <mxCell id="uBOc1RX5nlmYOmLGZq0Z-51" value="0" style="rounded=0;whiteSpace=wrap;html=1;fontSize=18;fontFamily=Times New Roman;" vertex="1" parent="1">
          <mxGeometry x="280" y="460" width="40" height="40" as="geometry" />
        </mxCell>
        <mxCell id="uBOc1RX5nlmYOmLGZq0Z-52" value="2" style="rounded=0;whiteSpace=wrap;html=1;fontSize=18;fontFamily=Times New Roman;" vertex="1" parent="1">
          <mxGeometry x="320" y="460" width="40" height="40" as="geometry" />
        </mxCell>
        <mxCell id="uBOc1RX5nlmYOmLGZq0Z-53" value="3" style="rounded=0;whiteSpace=wrap;html=1;fontSize=18;fontFamily=Times New Roman;" vertex="1" parent="1">
          <mxGeometry x="360" y="460" width="40" height="40" as="geometry" />
        </mxCell>
        <mxCell id="uBOc1RX5nlmYOmLGZq0Z-54" value="0" style="rounded=0;whiteSpace=wrap;html=1;fontSize=18;fontFamily=Times New Roman;" vertex="1" parent="1">
          <mxGeometry x="400" y="460" width="40" height="40" as="geometry" />
        </mxCell>
        <mxCell id="uBOc1RX5nlmYOmLGZq0Z-55" value="0" style="text;html=1;align=center;verticalAlign=middle;whiteSpace=wrap;rounded=0;fontFamily=Times New Roman;fontSize=14;" vertex="1" parent="1">
          <mxGeometry x="240" y="500" width="40" height="20" as="geometry" />
        </mxCell>
        <mxCell id="uBOc1RX5nlmYOmLGZq0Z-56" value="1" style="text;html=1;align=center;verticalAlign=middle;whiteSpace=wrap;rounded=0;fontFamily=Times New Roman;fontSize=14;" vertex="1" parent="1">
          <mxGeometry x="280" y="500" width="40" height="20" as="geometry" />
        </mxCell>
        <mxCell id="uBOc1RX5nlmYOmLGZq0Z-57" value="2" style="text;html=1;align=center;verticalAlign=middle;whiteSpace=wrap;rounded=0;fontFamily=Times New Roman;fontSize=14;" vertex="1" parent="1">
          <mxGeometry x="320" y="500" width="40" height="20" as="geometry" />
        </mxCell>
        <mxCell id="uBOc1RX5nlmYOmLGZq0Z-58" value="3" style="text;html=1;align=center;verticalAlign=middle;whiteSpace=wrap;rounded=0;fontFamily=Times New Roman;fontSize=14;" vertex="1" parent="1">
          <mxGeometry x="360" y="500" width="40" height="20" as="geometry" />
        </mxCell>
        <mxCell id="uBOc1RX5nlmYOmLGZq0Z-59" value="4" style="text;html=1;align=center;verticalAlign=middle;whiteSpace=wrap;rounded=0;fontFamily=Times New Roman;fontSize=14;" vertex="1" parent="1">
          <mxGeometry x="400" y="500" width="40" height="20" as="geometry" />
        </mxCell>
        <mxCell id="uBOc1RX5nlmYOmLGZq0Z-60" value="Count Array" style="rounded=1;whiteSpace=wrap;html=1;fontFamily=Times New Roman;fontSize=18;" vertex="1" parent="1">
          <mxGeometry x="40" y="460" width="120" height="40" as="geometry" />
        </mxCell>
        <mxCell id="uBOc1RX5nlmYOmLGZq0Z-63" value="1" style="rounded=0;whiteSpace=wrap;html=1;fontSize=18;fontFamily=Times New Roman;" vertex="1" parent="1">
          <mxGeometry x="440" y="460" width="40" height="40" as="geometry" />
        </mxCell>
        <mxCell id="uBOc1RX5nlmYOmLGZq0Z-64" value="5" style="text;html=1;align=center;verticalAlign=middle;whiteSpace=wrap;rounded=0;fontFamily=Times New Roman;fontSize=14;" vertex="1" parent="1">
          <mxGeometry x="440" y="500" width="40" height="20" as="geometry" />
        </mxCell>
        <mxCell id="uBOc1RX5nlmYOmLGZq0Z-66" value="" style="rounded=0;whiteSpace=wrap;html=1;strokeColor=none;" vertex="1" parent="1">
          <mxGeometry x="40" y="530" width="720" height="70" as="geometry" />
        </mxCell>
        <mxCell id="uBOc1RX5nlmYOmLGZq0Z-67" value="2" style="rounded=0;whiteSpace=wrap;html=1;fontSize=18;fontFamily=Times New Roman;" vertex="1" parent="1">
          <mxGeometry x="240" y="540" width="40" height="40" as="geometry" />
        </mxCell>
        <mxCell id="uBOc1RX5nlmYOmLGZq0Z-68" value="2" style="rounded=0;whiteSpace=wrap;html=1;fontSize=18;fontFamily=Times New Roman;" vertex="1" parent="1">
          <mxGeometry x="280" y="540" width="40" height="40" as="geometry" />
        </mxCell>
        <mxCell id="uBOc1RX5nlmYOmLGZq0Z-69" value="4" style="rounded=0;whiteSpace=wrap;html=1;fontSize=18;fontFamily=Times New Roman;" vertex="1" parent="1">
          <mxGeometry x="320" y="540" width="40" height="40" as="geometry" />
        </mxCell>
        <mxCell id="uBOc1RX5nlmYOmLGZq0Z-70" value="7" style="rounded=0;whiteSpace=wrap;html=1;fontSize=18;fontFamily=Times New Roman;" vertex="1" parent="1">
          <mxGeometry x="360" y="540" width="40" height="40" as="geometry" />
        </mxCell>
        <mxCell id="uBOc1RX5nlmYOmLGZq0Z-71" value="7" style="rounded=0;whiteSpace=wrap;html=1;fontSize=18;fontFamily=Times New Roman;" vertex="1" parent="1">
          <mxGeometry x="400" y="540" width="40" height="40" as="geometry" />
        </mxCell>
        <mxCell id="uBOc1RX5nlmYOmLGZq0Z-72" value="0" style="text;html=1;align=center;verticalAlign=middle;whiteSpace=wrap;rounded=0;fontFamily=Times New Roman;fontSize=14;" vertex="1" parent="1">
          <mxGeometry x="240" y="580" width="40" height="20" as="geometry" />
        </mxCell>
        <mxCell id="uBOc1RX5nlmYOmLGZq0Z-73" value="1" style="text;html=1;align=center;verticalAlign=middle;whiteSpace=wrap;rounded=0;fontFamily=Times New Roman;fontSize=14;" vertex="1" parent="1">
          <mxGeometry x="280" y="580" width="40" height="20" as="geometry" />
        </mxCell>
        <mxCell id="uBOc1RX5nlmYOmLGZq0Z-74" value="2" style="text;html=1;align=center;verticalAlign=middle;whiteSpace=wrap;rounded=0;fontFamily=Times New Roman;fontSize=14;" vertex="1" parent="1">
          <mxGeometry x="320" y="580" width="40" height="20" as="geometry" />
        </mxCell>
        <mxCell id="uBOc1RX5nlmYOmLGZq0Z-75" value="3" style="text;html=1;align=center;verticalAlign=middle;whiteSpace=wrap;rounded=0;fontFamily=Times New Roman;fontSize=14;" vertex="1" parent="1">
          <mxGeometry x="360" y="580" width="40" height="20" as="geometry" />
        </mxCell>
        <mxCell id="uBOc1RX5nlmYOmLGZq0Z-76" value="4" style="text;html=1;align=center;verticalAlign=middle;whiteSpace=wrap;rounded=0;fontFamily=Times New Roman;fontSize=14;" vertex="1" parent="1">
          <mxGeometry x="400" y="580" width="40" height="20" as="geometry" />
        </mxCell>
        <mxCell id="uBOc1RX5nlmYOmLGZq0Z-77" value="Count Array" style="rounded=1;whiteSpace=wrap;html=1;fontFamily=Times New Roman;fontSize=18;" vertex="1" parent="1">
          <mxGeometry x="40" y="540" width="120" height="40" as="geometry" />
        </mxCell>
        <mxCell id="uBOc1RX5nlmYOmLGZq0Z-78" value="8" style="rounded=0;whiteSpace=wrap;html=1;fontSize=18;fontFamily=Times New Roman;" vertex="1" parent="1">
          <mxGeometry x="440" y="540" width="40" height="40" as="geometry" />
        </mxCell>
        <mxCell id="uBOc1RX5nlmYOmLGZq0Z-79" value="5" style="text;html=1;align=center;verticalAlign=middle;whiteSpace=wrap;rounded=0;fontFamily=Times New Roman;fontSize=14;" vertex="1" parent="1">
          <mxGeometry x="440" y="580" width="40" height="20" as="geometry" />
        </mxCell>
        <mxCell id="uBOc1RX5nlmYOmLGZq0Z-80" value="" style="rounded=0;whiteSpace=wrap;html=1;strokeColor=none;" vertex="1" parent="1">
          <mxGeometry x="40" y="640" width="720" height="360" as="geometry" />
        </mxCell>
        <mxCell id="uBOc1RX5nlmYOmLGZq0Z-81" value="2" style="rounded=0;whiteSpace=wrap;html=1;fontSize=18;fontFamily=Times New Roman;" vertex="1" parent="1">
          <mxGeometry x="240" y="700" width="40" height="40" as="geometry" />
        </mxCell>
        <mxCell id="uBOc1RX5nlmYOmLGZq0Z-82" value="5" style="rounded=0;whiteSpace=wrap;html=1;fontSize=18;fontFamily=Times New Roman;" vertex="1" parent="1">
          <mxGeometry x="280" y="700" width="40" height="40" as="geometry" />
        </mxCell>
        <mxCell id="uBOc1RX5nlmYOmLGZq0Z-83" value="3" style="rounded=0;whiteSpace=wrap;html=1;fontSize=18;fontFamily=Times New Roman;" vertex="1" parent="1">
          <mxGeometry x="320" y="700" width="40" height="40" as="geometry" />
        </mxCell>
        <mxCell id="uBOc1RX5nlmYOmLGZq0Z-84" value="0" style="rounded=0;whiteSpace=wrap;html=1;fontSize=18;fontFamily=Times New Roman;" vertex="1" parent="1">
          <mxGeometry x="360" y="700" width="40" height="40" as="geometry" />
        </mxCell>
        <mxCell id="uBOc1RX5nlmYOmLGZq0Z-85" value="2" style="rounded=0;whiteSpace=wrap;html=1;fontSize=18;fontFamily=Times New Roman;" vertex="1" parent="1">
          <mxGeometry x="400" y="700" width="40" height="40" as="geometry" />
        </mxCell>
        <mxCell id="uBOc1RX5nlmYOmLGZq0Z-86" value="3" style="rounded=0;whiteSpace=wrap;html=1;fontSize=18;fontFamily=Times New Roman;" vertex="1" parent="1">
          <mxGeometry x="440" y="700" width="40" height="40" as="geometry" />
        </mxCell>
        <mxCell id="uBOc1RX5nlmYOmLGZq0Z-87" value="0" style="rounded=0;whiteSpace=wrap;html=1;fontSize=18;fontFamily=Times New Roman;" vertex="1" parent="1">
          <mxGeometry x="480" y="700" width="40" height="40" as="geometry" />
        </mxCell>
        <mxCell id="uBOc1RX5nlmYOmLGZq0Z-88" value="3" style="rounded=0;whiteSpace=wrap;html=1;fontSize=18;fontFamily=Times New Roman;fillColor=#CCFFCC;strokeColor=#000000;" vertex="1" parent="1">
          <mxGeometry x="520" y="700" width="40" height="40" as="geometry" />
        </mxCell>
        <mxCell id="uBOc1RX5nlmYOmLGZq0Z-89" value="0" style="text;html=1;align=center;verticalAlign=middle;whiteSpace=wrap;rounded=0;fontFamily=Times New Roman;fontSize=14;" vertex="1" parent="1">
          <mxGeometry x="240" y="740" width="40" height="20" as="geometry" />
        </mxCell>
        <mxCell id="uBOc1RX5nlmYOmLGZq0Z-90" value="1" style="text;html=1;align=center;verticalAlign=middle;whiteSpace=wrap;rounded=0;fontFamily=Times New Roman;fontSize=14;" vertex="1" parent="1">
          <mxGeometry x="280" y="740" width="40" height="20" as="geometry" />
        </mxCell>
        <mxCell id="uBOc1RX5nlmYOmLGZq0Z-91" value="2" style="text;html=1;align=center;verticalAlign=middle;whiteSpace=wrap;rounded=0;fontFamily=Times New Roman;fontSize=14;" vertex="1" parent="1">
          <mxGeometry x="320" y="740" width="40" height="20" as="geometry" />
        </mxCell>
        <mxCell id="uBOc1RX5nlmYOmLGZq0Z-92" value="3" style="text;html=1;align=center;verticalAlign=middle;whiteSpace=wrap;rounded=0;fontFamily=Times New Roman;fontSize=14;" vertex="1" parent="1">
          <mxGeometry x="360" y="740" width="40" height="20" as="geometry" />
        </mxCell>
        <mxCell id="uBOc1RX5nlmYOmLGZq0Z-93" value="4" style="text;html=1;align=center;verticalAlign=middle;whiteSpace=wrap;rounded=0;fontFamily=Times New Roman;fontSize=14;" vertex="1" parent="1">
          <mxGeometry x="400" y="740" width="40" height="20" as="geometry" />
        </mxCell>
        <mxCell id="uBOc1RX5nlmYOmLGZq0Z-94" value="5" style="text;html=1;align=center;verticalAlign=middle;whiteSpace=wrap;rounded=0;fontFamily=Times New Roman;fontSize=14;" vertex="1" parent="1">
          <mxGeometry x="440" y="740" width="40" height="20" as="geometry" />
        </mxCell>
        <mxCell id="uBOc1RX5nlmYOmLGZq0Z-95" value="6" style="text;html=1;align=center;verticalAlign=middle;whiteSpace=wrap;rounded=0;fontFamily=Times New Roman;fontSize=14;" vertex="1" parent="1">
          <mxGeometry x="480" y="740" width="40" height="20" as="geometry" />
        </mxCell>
        <mxCell id="uBOc1RX5nlmYOmLGZq0Z-130" style="edgeStyle=orthogonalEdgeStyle;rounded=0;orthogonalLoop=1;jettySize=auto;html=1;entryX=0.5;entryY=0;entryDx=0;entryDy=0;" edge="1" parent="1" source="uBOc1RX5nlmYOmLGZq0Z-96" target="uBOc1RX5nlmYOmLGZq0Z-102">
          <mxGeometry relative="1" as="geometry">
            <Array as="points">
              <mxPoint x="540" y="780" />
              <mxPoint x="380" y="780" />
            </Array>
          </mxGeometry>
        </mxCell>
        <mxCell id="uBOc1RX5nlmYOmLGZq0Z-96" value="7" style="text;html=1;align=center;verticalAlign=middle;whiteSpace=wrap;rounded=0;fontFamily=Times New Roman;fontSize=14;" vertex="1" parent="1">
          <mxGeometry x="520" y="740" width="40" height="20" as="geometry" />
        </mxCell>
        <mxCell id="uBOc1RX5nlmYOmLGZq0Z-97" value="Input Array" style="rounded=1;whiteSpace=wrap;html=1;fontFamily=Times New Roman;fontSize=18;" vertex="1" parent="1">
          <mxGeometry x="40" y="700" width="120" height="40" as="geometry" />
        </mxCell>
        <mxCell id="uBOc1RX5nlmYOmLGZq0Z-99" value="2" style="rounded=0;whiteSpace=wrap;html=1;fontSize=18;fontFamily=Times New Roman;" vertex="1" parent="1">
          <mxGeometry x="240" y="820" width="40" height="40" as="geometry" />
        </mxCell>
        <mxCell id="uBOc1RX5nlmYOmLGZq0Z-100" value="2" style="rounded=0;whiteSpace=wrap;html=1;fontSize=18;fontFamily=Times New Roman;" vertex="1" parent="1">
          <mxGeometry x="280" y="820" width="40" height="40" as="geometry" />
        </mxCell>
        <mxCell id="uBOc1RX5nlmYOmLGZq0Z-101" value="4" style="rounded=0;whiteSpace=wrap;html=1;fontSize=18;fontFamily=Times New Roman;" vertex="1" parent="1">
          <mxGeometry x="320" y="820" width="40" height="40" as="geometry" />
        </mxCell>
        <mxCell id="uBOc1RX5nlmYOmLGZq0Z-102" value="7" style="rounded=0;whiteSpace=wrap;html=1;fontSize=18;fontFamily=Times New Roman;" vertex="1" parent="1">
          <mxGeometry x="360" y="820" width="40" height="40" as="geometry" />
        </mxCell>
        <mxCell id="uBOc1RX5nlmYOmLGZq0Z-103" value="7" style="rounded=0;whiteSpace=wrap;html=1;fontSize=18;fontFamily=Times New Roman;" vertex="1" parent="1">
          <mxGeometry x="400" y="820" width="40" height="40" as="geometry" />
        </mxCell>
        <mxCell id="uBOc1RX5nlmYOmLGZq0Z-104" value="0" style="text;html=1;align=center;verticalAlign=middle;whiteSpace=wrap;rounded=0;fontFamily=Times New Roman;fontSize=14;" vertex="1" parent="1">
          <mxGeometry x="240" y="860" width="40" height="20" as="geometry" />
        </mxCell>
        <mxCell id="uBOc1RX5nlmYOmLGZq0Z-105" value="1" style="text;html=1;align=center;verticalAlign=middle;whiteSpace=wrap;rounded=0;fontFamily=Times New Roman;fontSize=14;" vertex="1" parent="1">
          <mxGeometry x="280" y="860" width="40" height="20" as="geometry" />
        </mxCell>
        <mxCell id="uBOc1RX5nlmYOmLGZq0Z-106" value="2" style="text;html=1;align=center;verticalAlign=middle;whiteSpace=wrap;rounded=0;fontFamily=Times New Roman;fontSize=14;" vertex="1" parent="1">
          <mxGeometry x="320" y="860" width="40" height="20" as="geometry" />
        </mxCell>
        <mxCell id="uBOc1RX5nlmYOmLGZq0Z-133" style="edgeStyle=orthogonalEdgeStyle;rounded=0;orthogonalLoop=1;jettySize=auto;html=1;exitX=0.5;exitY=1;exitDx=0;exitDy=0;entryX=0.5;entryY=0;entryDx=0;entryDy=0;" edge="1" parent="1" source="uBOc1RX5nlmYOmLGZq0Z-107" target="uBOc1RX5nlmYOmLGZq0Z-119">
          <mxGeometry relative="1" as="geometry" />
        </mxCell>
        <mxCell id="uBOc1RX5nlmYOmLGZq0Z-107" value="3" style="text;html=1;align=center;verticalAlign=middle;whiteSpace=wrap;rounded=0;fontFamily=Times New Roman;fontSize=14;" vertex="1" parent="1">
          <mxGeometry x="360" y="860" width="40" height="20" as="geometry" />
        </mxCell>
        <mxCell id="uBOc1RX5nlmYOmLGZq0Z-108" value="4" style="text;html=1;align=center;verticalAlign=middle;whiteSpace=wrap;rounded=0;fontFamily=Times New Roman;fontSize=14;" vertex="1" parent="1">
          <mxGeometry x="400" y="860" width="40" height="20" as="geometry" />
        </mxCell>
        <mxCell id="uBOc1RX5nlmYOmLGZq0Z-109" value="Count Array" style="rounded=1;whiteSpace=wrap;html=1;fontFamily=Times New Roman;fontSize=18;" vertex="1" parent="1">
          <mxGeometry x="40" y="820" width="120" height="40" as="geometry" />
        </mxCell>
        <mxCell id="uBOc1RX5nlmYOmLGZq0Z-110" value="8" style="rounded=0;whiteSpace=wrap;html=1;fontSize=18;fontFamily=Times New Roman;" vertex="1" parent="1">
          <mxGeometry x="440" y="820" width="40" height="40" as="geometry" />
        </mxCell>
        <mxCell id="uBOc1RX5nlmYOmLGZq0Z-111" value="5" style="text;html=1;align=center;verticalAlign=middle;whiteSpace=wrap;rounded=0;fontFamily=Times New Roman;fontSize=14;" vertex="1" parent="1">
          <mxGeometry x="440" y="860" width="40" height="20" as="geometry" />
        </mxCell>
        <mxCell id="uBOc1RX5nlmYOmLGZq0Z-113" value="" style="rounded=0;whiteSpace=wrap;html=1;fontSize=18;fontFamily=Times New Roman;" vertex="1" parent="1">
          <mxGeometry x="240" y="940" width="40" height="40" as="geometry" />
        </mxCell>
        <mxCell id="uBOc1RX5nlmYOmLGZq0Z-114" value="" style="rounded=0;whiteSpace=wrap;html=1;fontSize=18;fontFamily=Times New Roman;" vertex="1" parent="1">
          <mxGeometry x="280" y="940" width="40" height="40" as="geometry" />
        </mxCell>
        <mxCell id="uBOc1RX5nlmYOmLGZq0Z-115" value="" style="rounded=0;whiteSpace=wrap;html=1;fontSize=18;fontFamily=Times New Roman;" vertex="1" parent="1">
          <mxGeometry x="320" y="940" width="40" height="40" as="geometry" />
        </mxCell>
        <mxCell id="uBOc1RX5nlmYOmLGZq0Z-116" value="" style="rounded=0;whiteSpace=wrap;html=1;fontSize=18;fontFamily=Times New Roman;" vertex="1" parent="1">
          <mxGeometry x="360" y="940" width="40" height="40" as="geometry" />
        </mxCell>
        <mxCell id="uBOc1RX5nlmYOmLGZq0Z-117" value="" style="rounded=0;whiteSpace=wrap;html=1;fontSize=18;fontFamily=Times New Roman;" vertex="1" parent="1">
          <mxGeometry x="400" y="940" width="40" height="40" as="geometry" />
        </mxCell>
        <mxCell id="uBOc1RX5nlmYOmLGZq0Z-118" value="" style="rounded=0;whiteSpace=wrap;html=1;fontSize=18;fontFamily=Times New Roman;" vertex="1" parent="1">
          <mxGeometry x="440" y="940" width="40" height="40" as="geometry" />
        </mxCell>
        <mxCell id="uBOc1RX5nlmYOmLGZq0Z-119" value="3" style="rounded=0;whiteSpace=wrap;html=1;fontSize=18;fontFamily=Times New Roman;strokeColor=#000000;fillColor=#CCFFCC;" vertex="1" parent="1">
          <mxGeometry x="480" y="940" width="40" height="40" as="geometry" />
        </mxCell>
        <mxCell id="uBOc1RX5nlmYOmLGZq0Z-120" value="" style="rounded=0;whiteSpace=wrap;html=1;fontSize=18;fontFamily=Times New Roman;" vertex="1" parent="1">
          <mxGeometry x="520" y="940" width="40" height="40" as="geometry" />
        </mxCell>
        <mxCell id="uBOc1RX5nlmYOmLGZq0Z-121" value="0" style="text;html=1;align=center;verticalAlign=middle;whiteSpace=wrap;rounded=0;fontFamily=Times New Roman;fontSize=14;" vertex="1" parent="1">
          <mxGeometry x="240" y="980" width="40" height="20" as="geometry" />
        </mxCell>
        <mxCell id="uBOc1RX5nlmYOmLGZq0Z-122" value="1" style="text;html=1;align=center;verticalAlign=middle;whiteSpace=wrap;rounded=0;fontFamily=Times New Roman;fontSize=14;" vertex="1" parent="1">
          <mxGeometry x="280" y="980" width="40" height="20" as="geometry" />
        </mxCell>
        <mxCell id="uBOc1RX5nlmYOmLGZq0Z-123" value="2" style="text;html=1;align=center;verticalAlign=middle;whiteSpace=wrap;rounded=0;fontFamily=Times New Roman;fontSize=14;" vertex="1" parent="1">
          <mxGeometry x="320" y="980" width="40" height="20" as="geometry" />
        </mxCell>
        <mxCell id="uBOc1RX5nlmYOmLGZq0Z-124" value="3" style="text;html=1;align=center;verticalAlign=middle;whiteSpace=wrap;rounded=0;fontFamily=Times New Roman;fontSize=14;" vertex="1" parent="1">
          <mxGeometry x="360" y="980" width="40" height="20" as="geometry" />
        </mxCell>
        <mxCell id="uBOc1RX5nlmYOmLGZq0Z-125" value="4" style="text;html=1;align=center;verticalAlign=middle;whiteSpace=wrap;rounded=0;fontFamily=Times New Roman;fontSize=14;" vertex="1" parent="1">
          <mxGeometry x="400" y="980" width="40" height="20" as="geometry" />
        </mxCell>
        <mxCell id="uBOc1RX5nlmYOmLGZq0Z-126" value="5" style="text;html=1;align=center;verticalAlign=middle;whiteSpace=wrap;rounded=0;fontFamily=Times New Roman;fontSize=14;" vertex="1" parent="1">
          <mxGeometry x="440" y="980" width="40" height="20" as="geometry" />
        </mxCell>
        <mxCell id="uBOc1RX5nlmYOmLGZq0Z-127" value="6" style="text;html=1;align=center;verticalAlign=middle;whiteSpace=wrap;rounded=0;fontFamily=Times New Roman;fontSize=14;" vertex="1" parent="1">
          <mxGeometry x="480" y="980" width="40" height="20" as="geometry" />
        </mxCell>
        <mxCell id="uBOc1RX5nlmYOmLGZq0Z-128" value="7" style="text;html=1;align=center;verticalAlign=middle;whiteSpace=wrap;rounded=0;fontFamily=Times New Roman;fontSize=14;" vertex="1" parent="1">
          <mxGeometry x="520" y="980" width="40" height="20" as="geometry" />
        </mxCell>
        <mxCell id="uBOc1RX5nlmYOmLGZq0Z-129" value="Output Array" style="rounded=1;whiteSpace=wrap;html=1;fontFamily=Times New Roman;fontSize=18;" vertex="1" parent="1">
          <mxGeometry x="40" y="940" width="120" height="40" as="geometry" />
        </mxCell>
        <mxCell id="uBOc1RX5nlmYOmLGZq0Z-132" value="3" style="rounded=0;whiteSpace=wrap;html=1;fontSize=18;fontFamily=Times New Roman;" vertex="1" parent="1">
          <mxGeometry x="440" y="760" width="40" height="40" as="geometry" />
        </mxCell>
        <mxCell id="uBOc1RX5nlmYOmLGZq0Z-134" value="7 - 1 = 6" style="rounded=0;whiteSpace=wrap;html=1;fontSize=18;fontFamily=Times New Roman;" vertex="1" parent="1">
          <mxGeometry x="400" y="890" width="80" height="40" as="geometry" />
        </mxCell>
        <mxCell id="uBOc1RX5nlmYOmLGZq0Z-135" value="" style="rounded=0;whiteSpace=wrap;html=1;strokeColor=none;" vertex="1" parent="1">
          <mxGeometry x="40" y="1040" width="720" height="360" as="geometry" />
        </mxCell>
        <mxCell id="uBOc1RX5nlmYOmLGZq0Z-136" value="2" style="rounded=0;whiteSpace=wrap;html=1;fontSize=18;fontFamily=Times New Roman;" vertex="1" parent="1">
          <mxGeometry x="240" y="1100" width="40" height="40" as="geometry" />
        </mxCell>
        <mxCell id="uBOc1RX5nlmYOmLGZq0Z-137" value="5" style="rounded=0;whiteSpace=wrap;html=1;fontSize=18;fontFamily=Times New Roman;" vertex="1" parent="1">
          <mxGeometry x="280" y="1100" width="40" height="40" as="geometry" />
        </mxCell>
        <mxCell id="uBOc1RX5nlmYOmLGZq0Z-138" value="3" style="rounded=0;whiteSpace=wrap;html=1;fontSize=18;fontFamily=Times New Roman;" vertex="1" parent="1">
          <mxGeometry x="320" y="1100" width="40" height="40" as="geometry" />
        </mxCell>
        <mxCell id="uBOc1RX5nlmYOmLGZq0Z-139" value="0" style="rounded=0;whiteSpace=wrap;html=1;fontSize=18;fontFamily=Times New Roman;" vertex="1" parent="1">
          <mxGeometry x="360" y="1100" width="40" height="40" as="geometry" />
        </mxCell>
        <mxCell id="uBOc1RX5nlmYOmLGZq0Z-140" value="2" style="rounded=0;whiteSpace=wrap;html=1;fontSize=18;fontFamily=Times New Roman;" vertex="1" parent="1">
          <mxGeometry x="400" y="1100" width="40" height="40" as="geometry" />
        </mxCell>
        <mxCell id="uBOc1RX5nlmYOmLGZq0Z-141" value="3" style="rounded=0;whiteSpace=wrap;html=1;fontSize=18;fontFamily=Times New Roman;" vertex="1" parent="1">
          <mxGeometry x="440" y="1100" width="40" height="40" as="geometry" />
        </mxCell>
        <mxCell id="uBOc1RX5nlmYOmLGZq0Z-142" value="0" style="rounded=0;whiteSpace=wrap;html=1;fontSize=18;fontFamily=Times New Roman;fillColor=#CCFFCC;" vertex="1" parent="1">
          <mxGeometry x="480" y="1100" width="40" height="40" as="geometry" />
        </mxCell>
        <mxCell id="uBOc1RX5nlmYOmLGZq0Z-143" value="3" style="rounded=0;whiteSpace=wrap;html=1;fontSize=18;fontFamily=Times New Roman;fillColor=#CCFFCC;strokeColor=#000000;" vertex="1" parent="1">
          <mxGeometry x="520" y="1100" width="40" height="40" as="geometry" />
        </mxCell>
        <mxCell id="uBOc1RX5nlmYOmLGZq0Z-144" value="0" style="text;html=1;align=center;verticalAlign=middle;whiteSpace=wrap;rounded=0;fontFamily=Times New Roman;fontSize=14;" vertex="1" parent="1">
          <mxGeometry x="240" y="1140" width="40" height="20" as="geometry" />
        </mxCell>
        <mxCell id="uBOc1RX5nlmYOmLGZq0Z-145" value="1" style="text;html=1;align=center;verticalAlign=middle;whiteSpace=wrap;rounded=0;fontFamily=Times New Roman;fontSize=14;" vertex="1" parent="1">
          <mxGeometry x="280" y="1140" width="40" height="20" as="geometry" />
        </mxCell>
        <mxCell id="uBOc1RX5nlmYOmLGZq0Z-146" value="2" style="text;html=1;align=center;verticalAlign=middle;whiteSpace=wrap;rounded=0;fontFamily=Times New Roman;fontSize=14;" vertex="1" parent="1">
          <mxGeometry x="320" y="1140" width="40" height="20" as="geometry" />
        </mxCell>
        <mxCell id="uBOc1RX5nlmYOmLGZq0Z-147" value="3" style="text;html=1;align=center;verticalAlign=middle;whiteSpace=wrap;rounded=0;fontFamily=Times New Roman;fontSize=14;" vertex="1" parent="1">
          <mxGeometry x="360" y="1140" width="40" height="20" as="geometry" />
        </mxCell>
        <mxCell id="uBOc1RX5nlmYOmLGZq0Z-148" value="4" style="text;html=1;align=center;verticalAlign=middle;whiteSpace=wrap;rounded=0;fontFamily=Times New Roman;fontSize=14;" vertex="1" parent="1">
          <mxGeometry x="400" y="1140" width="40" height="20" as="geometry" />
        </mxCell>
        <mxCell id="uBOc1RX5nlmYOmLGZq0Z-149" value="5" style="text;html=1;align=center;verticalAlign=middle;whiteSpace=wrap;rounded=0;fontFamily=Times New Roman;fontSize=14;" vertex="1" parent="1">
          <mxGeometry x="440" y="1140" width="40" height="20" as="geometry" />
        </mxCell>
        <mxCell id="uBOc1RX5nlmYOmLGZq0Z-150" value="6" style="text;html=1;align=center;verticalAlign=middle;whiteSpace=wrap;rounded=0;fontFamily=Times New Roman;fontSize=14;" vertex="1" parent="1">
          <mxGeometry x="480" y="1140" width="40" height="20" as="geometry" />
        </mxCell>
        <mxCell id="uBOc1RX5nlmYOmLGZq0Z-151" style="edgeStyle=orthogonalEdgeStyle;rounded=0;orthogonalLoop=1;jettySize=auto;html=1;entryX=0.5;entryY=0;entryDx=0;entryDy=0;exitX=0.5;exitY=1;exitDx=0;exitDy=0;" edge="1" source="uBOc1RX5nlmYOmLGZq0Z-150" target="uBOc1RX5nlmYOmLGZq0Z-154" parent="1">
          <mxGeometry relative="1" as="geometry">
            <Array as="points">
              <mxPoint x="500" y="1180" />
              <mxPoint x="260" y="1180" />
            </Array>
          </mxGeometry>
        </mxCell>
        <mxCell id="uBOc1RX5nlmYOmLGZq0Z-152" value="7" style="text;html=1;align=center;verticalAlign=middle;whiteSpace=wrap;rounded=0;fontFamily=Times New Roman;fontSize=14;" vertex="1" parent="1">
          <mxGeometry x="520" y="1140" width="40" height="20" as="geometry" />
        </mxCell>
        <mxCell id="uBOc1RX5nlmYOmLGZq0Z-153" value="Input Array" style="rounded=1;whiteSpace=wrap;html=1;fontFamily=Times New Roman;fontSize=18;" vertex="1" parent="1">
          <mxGeometry x="40" y="1100" width="120" height="40" as="geometry" />
        </mxCell>
        <mxCell id="uBOc1RX5nlmYOmLGZq0Z-154" value="2" style="rounded=0;whiteSpace=wrap;html=1;fontSize=18;fontFamily=Times New Roman;" vertex="1" parent="1">
          <mxGeometry x="240" y="1220" width="40" height="40" as="geometry" />
        </mxCell>
        <mxCell id="uBOc1RX5nlmYOmLGZq0Z-155" value="2" style="rounded=0;whiteSpace=wrap;html=1;fontSize=18;fontFamily=Times New Roman;" vertex="1" parent="1">
          <mxGeometry x="280" y="1220" width="40" height="40" as="geometry" />
        </mxCell>
        <mxCell id="uBOc1RX5nlmYOmLGZq0Z-156" value="4" style="rounded=0;whiteSpace=wrap;html=1;fontSize=18;fontFamily=Times New Roman;" vertex="1" parent="1">
          <mxGeometry x="320" y="1220" width="40" height="40" as="geometry" />
        </mxCell>
        <mxCell id="uBOc1RX5nlmYOmLGZq0Z-157" value="6" style="rounded=0;whiteSpace=wrap;html=1;fontSize=18;fontFamily=Times New Roman;" vertex="1" parent="1">
          <mxGeometry x="360" y="1220" width="40" height="40" as="geometry" />
        </mxCell>
        <mxCell id="uBOc1RX5nlmYOmLGZq0Z-158" value="7" style="rounded=0;whiteSpace=wrap;html=1;fontSize=18;fontFamily=Times New Roman;" vertex="1" parent="1">
          <mxGeometry x="400" y="1220" width="40" height="40" as="geometry" />
        </mxCell>
        <mxCell id="uBOc1RX5nlmYOmLGZq0Z-187" style="edgeStyle=orthogonalEdgeStyle;rounded=0;orthogonalLoop=1;jettySize=auto;html=1;exitX=0.5;exitY=1;exitDx=0;exitDy=0;entryX=0.5;entryY=0;entryDx=0;entryDy=0;" edge="1" parent="1" source="uBOc1RX5nlmYOmLGZq0Z-159" target="uBOc1RX5nlmYOmLGZq0Z-169">
          <mxGeometry relative="1" as="geometry" />
        </mxCell>
        <mxCell id="uBOc1RX5nlmYOmLGZq0Z-159" value="0" style="text;html=1;align=center;verticalAlign=middle;whiteSpace=wrap;rounded=0;fontFamily=Times New Roman;fontSize=14;" vertex="1" parent="1">
          <mxGeometry x="240" y="1260" width="40" height="20" as="geometry" />
        </mxCell>
        <mxCell id="uBOc1RX5nlmYOmLGZq0Z-160" value="1" style="text;html=1;align=center;verticalAlign=middle;whiteSpace=wrap;rounded=0;fontFamily=Times New Roman;fontSize=14;" vertex="1" parent="1">
          <mxGeometry x="280" y="1260" width="40" height="20" as="geometry" />
        </mxCell>
        <mxCell id="uBOc1RX5nlmYOmLGZq0Z-161" value="2" style="text;html=1;align=center;verticalAlign=middle;whiteSpace=wrap;rounded=0;fontFamily=Times New Roman;fontSize=14;" vertex="1" parent="1">
          <mxGeometry x="320" y="1260" width="40" height="20" as="geometry" />
        </mxCell>
        <mxCell id="uBOc1RX5nlmYOmLGZq0Z-163" value="3" style="text;html=1;align=center;verticalAlign=middle;whiteSpace=wrap;rounded=0;fontFamily=Times New Roman;fontSize=14;" vertex="1" parent="1">
          <mxGeometry x="360" y="1260" width="40" height="20" as="geometry" />
        </mxCell>
        <mxCell id="uBOc1RX5nlmYOmLGZq0Z-164" value="4" style="text;html=1;align=center;verticalAlign=middle;whiteSpace=wrap;rounded=0;fontFamily=Times New Roman;fontSize=14;" vertex="1" parent="1">
          <mxGeometry x="400" y="1260" width="40" height="20" as="geometry" />
        </mxCell>
        <mxCell id="uBOc1RX5nlmYOmLGZq0Z-165" value="Count Array" style="rounded=1;whiteSpace=wrap;html=1;fontFamily=Times New Roman;fontSize=18;" vertex="1" parent="1">
          <mxGeometry x="40" y="1220" width="120" height="40" as="geometry" />
        </mxCell>
        <mxCell id="uBOc1RX5nlmYOmLGZq0Z-166" value="8" style="rounded=0;whiteSpace=wrap;html=1;fontSize=18;fontFamily=Times New Roman;" vertex="1" parent="1">
          <mxGeometry x="440" y="1220" width="40" height="40" as="geometry" />
        </mxCell>
        <mxCell id="uBOc1RX5nlmYOmLGZq0Z-167" value="5" style="text;html=1;align=center;verticalAlign=middle;whiteSpace=wrap;rounded=0;fontFamily=Times New Roman;fontSize=14;" vertex="1" parent="1">
          <mxGeometry x="440" y="1260" width="40" height="20" as="geometry" />
        </mxCell>
        <mxCell id="uBOc1RX5nlmYOmLGZq0Z-168" value="" style="rounded=0;whiteSpace=wrap;html=1;fontSize=18;fontFamily=Times New Roman;" vertex="1" parent="1">
          <mxGeometry x="240" y="1340" width="40" height="40" as="geometry" />
        </mxCell>
        <mxCell id="uBOc1RX5nlmYOmLGZq0Z-169" value="0" style="rounded=0;whiteSpace=wrap;html=1;fontSize=18;fontFamily=Times New Roman;fillColor=#CCFFCC;" vertex="1" parent="1">
          <mxGeometry x="280" y="1340" width="40" height="40" as="geometry" />
        </mxCell>
        <mxCell id="uBOc1RX5nlmYOmLGZq0Z-170" value="" style="rounded=0;whiteSpace=wrap;html=1;fontSize=18;fontFamily=Times New Roman;" vertex="1" parent="1">
          <mxGeometry x="320" y="1340" width="40" height="40" as="geometry" />
        </mxCell>
        <mxCell id="uBOc1RX5nlmYOmLGZq0Z-171" value="" style="rounded=0;whiteSpace=wrap;html=1;fontSize=18;fontFamily=Times New Roman;" vertex="1" parent="1">
          <mxGeometry x="360" y="1340" width="40" height="40" as="geometry" />
        </mxCell>
        <mxCell id="uBOc1RX5nlmYOmLGZq0Z-172" value="" style="rounded=0;whiteSpace=wrap;html=1;fontSize=18;fontFamily=Times New Roman;" vertex="1" parent="1">
          <mxGeometry x="400" y="1340" width="40" height="40" as="geometry" />
        </mxCell>
        <mxCell id="uBOc1RX5nlmYOmLGZq0Z-173" value="" style="rounded=0;whiteSpace=wrap;html=1;fontSize=18;fontFamily=Times New Roman;" vertex="1" parent="1">
          <mxGeometry x="440" y="1340" width="40" height="40" as="geometry" />
        </mxCell>
        <mxCell id="uBOc1RX5nlmYOmLGZq0Z-174" value="3" style="rounded=0;whiteSpace=wrap;html=1;fontSize=18;fontFamily=Times New Roman;strokeColor=#000000;fillColor=#CCFFCC;" vertex="1" parent="1">
          <mxGeometry x="480" y="1340" width="40" height="40" as="geometry" />
        </mxCell>
        <mxCell id="uBOc1RX5nlmYOmLGZq0Z-175" value="" style="rounded=0;whiteSpace=wrap;html=1;fontSize=18;fontFamily=Times New Roman;" vertex="1" parent="1">
          <mxGeometry x="520" y="1340" width="40" height="40" as="geometry" />
        </mxCell>
        <mxCell id="uBOc1RX5nlmYOmLGZq0Z-176" value="0" style="text;html=1;align=center;verticalAlign=middle;whiteSpace=wrap;rounded=0;fontFamily=Times New Roman;fontSize=14;" vertex="1" parent="1">
          <mxGeometry x="240" y="1380" width="40" height="20" as="geometry" />
        </mxCell>
        <mxCell id="uBOc1RX5nlmYOmLGZq0Z-177" value="1" style="text;html=1;align=center;verticalAlign=middle;whiteSpace=wrap;rounded=0;fontFamily=Times New Roman;fontSize=14;" vertex="1" parent="1">
          <mxGeometry x="280" y="1380" width="40" height="20" as="geometry" />
        </mxCell>
        <mxCell id="uBOc1RX5nlmYOmLGZq0Z-178" value="2" style="text;html=1;align=center;verticalAlign=middle;whiteSpace=wrap;rounded=0;fontFamily=Times New Roman;fontSize=14;" vertex="1" parent="1">
          <mxGeometry x="320" y="1380" width="40" height="20" as="geometry" />
        </mxCell>
        <mxCell id="uBOc1RX5nlmYOmLGZq0Z-179" value="3" style="text;html=1;align=center;verticalAlign=middle;whiteSpace=wrap;rounded=0;fontFamily=Times New Roman;fontSize=14;" vertex="1" parent="1">
          <mxGeometry x="360" y="1380" width="40" height="20" as="geometry" />
        </mxCell>
        <mxCell id="uBOc1RX5nlmYOmLGZq0Z-180" value="4" style="text;html=1;align=center;verticalAlign=middle;whiteSpace=wrap;rounded=0;fontFamily=Times New Roman;fontSize=14;" vertex="1" parent="1">
          <mxGeometry x="400" y="1380" width="40" height="20" as="geometry" />
        </mxCell>
        <mxCell id="uBOc1RX5nlmYOmLGZq0Z-181" value="5" style="text;html=1;align=center;verticalAlign=middle;whiteSpace=wrap;rounded=0;fontFamily=Times New Roman;fontSize=14;" vertex="1" parent="1">
          <mxGeometry x="440" y="1380" width="40" height="20" as="geometry" />
        </mxCell>
        <mxCell id="uBOc1RX5nlmYOmLGZq0Z-182" value="6" style="text;html=1;align=center;verticalAlign=middle;whiteSpace=wrap;rounded=0;fontFamily=Times New Roman;fontSize=14;" vertex="1" parent="1">
          <mxGeometry x="480" y="1380" width="40" height="20" as="geometry" />
        </mxCell>
        <mxCell id="uBOc1RX5nlmYOmLGZq0Z-183" value="7" style="text;html=1;align=center;verticalAlign=middle;whiteSpace=wrap;rounded=0;fontFamily=Times New Roman;fontSize=14;" vertex="1" parent="1">
          <mxGeometry x="520" y="1380" width="40" height="20" as="geometry" />
        </mxCell>
        <mxCell id="uBOc1RX5nlmYOmLGZq0Z-184" value="Output Array" style="rounded=1;whiteSpace=wrap;html=1;fontFamily=Times New Roman;fontSize=18;" vertex="1" parent="1">
          <mxGeometry x="40" y="1340" width="120" height="40" as="geometry" />
        </mxCell>
        <mxCell id="uBOc1RX5nlmYOmLGZq0Z-185" value="0" style="rounded=0;whiteSpace=wrap;html=1;fontSize=18;fontFamily=Times New Roman;" vertex="1" parent="1">
          <mxGeometry x="360" y="1160" width="40" height="40" as="geometry" />
        </mxCell>
        <mxCell id="uBOc1RX5nlmYOmLGZq0Z-186" value="2 - 1 = 1" style="rounded=0;whiteSpace=wrap;html=1;fontSize=18;fontFamily=Times New Roman;" vertex="1" parent="1">
          <mxGeometry x="240" y="1290" width="80" height="40" as="geometry" />
        </mxCell>
        <mxCell id="uBOc1RX5nlmYOmLGZq0Z-189" value="" style="rounded=0;whiteSpace=wrap;html=1;strokeColor=none;" vertex="1" parent="1">
          <mxGeometry x="40" y="1440" width="720" height="360" as="geometry" />
        </mxCell>
        <mxCell id="uBOc1RX5nlmYOmLGZq0Z-190" value="2" style="rounded=0;whiteSpace=wrap;html=1;fontSize=18;fontFamily=Times New Roman;" vertex="1" parent="1">
          <mxGeometry x="240" y="1500" width="40" height="40" as="geometry" />
        </mxCell>
        <mxCell id="uBOc1RX5nlmYOmLGZq0Z-191" value="5" style="rounded=0;whiteSpace=wrap;html=1;fontSize=18;fontFamily=Times New Roman;" vertex="1" parent="1">
          <mxGeometry x="280" y="1500" width="40" height="40" as="geometry" />
        </mxCell>
        <mxCell id="uBOc1RX5nlmYOmLGZq0Z-192" value="3" style="rounded=0;whiteSpace=wrap;html=1;fontSize=18;fontFamily=Times New Roman;" vertex="1" parent="1">
          <mxGeometry x="320" y="1500" width="40" height="40" as="geometry" />
        </mxCell>
        <mxCell id="uBOc1RX5nlmYOmLGZq0Z-193" value="0" style="rounded=0;whiteSpace=wrap;html=1;fontSize=18;fontFamily=Times New Roman;" vertex="1" parent="1">
          <mxGeometry x="360" y="1500" width="40" height="40" as="geometry" />
        </mxCell>
        <mxCell id="uBOc1RX5nlmYOmLGZq0Z-194" value="2" style="rounded=0;whiteSpace=wrap;html=1;fontSize=18;fontFamily=Times New Roman;" vertex="1" parent="1">
          <mxGeometry x="400" y="1500" width="40" height="40" as="geometry" />
        </mxCell>
        <mxCell id="uBOc1RX5nlmYOmLGZq0Z-195" value="3" style="rounded=0;whiteSpace=wrap;html=1;fontSize=18;fontFamily=Times New Roman;" vertex="1" parent="1">
          <mxGeometry x="440" y="1500" width="40" height="40" as="geometry" />
        </mxCell>
        <mxCell id="uBOc1RX5nlmYOmLGZq0Z-196" value="0" style="rounded=0;whiteSpace=wrap;html=1;fontSize=18;fontFamily=Times New Roman;fillColor=#CCFFCC;" vertex="1" parent="1">
          <mxGeometry x="480" y="1500" width="40" height="40" as="geometry" />
        </mxCell>
        <mxCell id="uBOc1RX5nlmYOmLGZq0Z-197" value="3" style="rounded=0;whiteSpace=wrap;html=1;fontSize=18;fontFamily=Times New Roman;fillColor=#CCFFCC;strokeColor=#000000;" vertex="1" parent="1">
          <mxGeometry x="520" y="1500" width="40" height="40" as="geometry" />
        </mxCell>
        <mxCell id="uBOc1RX5nlmYOmLGZq0Z-198" value="0" style="text;html=1;align=center;verticalAlign=middle;whiteSpace=wrap;rounded=0;fontFamily=Times New Roman;fontSize=14;" vertex="1" parent="1">
          <mxGeometry x="240" y="1540" width="40" height="20" as="geometry" />
        </mxCell>
        <mxCell id="uBOc1RX5nlmYOmLGZq0Z-199" value="1" style="text;html=1;align=center;verticalAlign=middle;whiteSpace=wrap;rounded=0;fontFamily=Times New Roman;fontSize=14;" vertex="1" parent="1">
          <mxGeometry x="280" y="1540" width="40" height="20" as="geometry" />
        </mxCell>
        <mxCell id="uBOc1RX5nlmYOmLGZq0Z-200" value="2" style="text;html=1;align=center;verticalAlign=middle;whiteSpace=wrap;rounded=0;fontFamily=Times New Roman;fontSize=14;" vertex="1" parent="1">
          <mxGeometry x="320" y="1540" width="40" height="20" as="geometry" />
        </mxCell>
        <mxCell id="uBOc1RX5nlmYOmLGZq0Z-201" value="3" style="text;html=1;align=center;verticalAlign=middle;whiteSpace=wrap;rounded=0;fontFamily=Times New Roman;fontSize=14;" vertex="1" parent="1">
          <mxGeometry x="360" y="1540" width="40" height="20" as="geometry" />
        </mxCell>
        <mxCell id="uBOc1RX5nlmYOmLGZq0Z-202" value="4" style="text;html=1;align=center;verticalAlign=middle;whiteSpace=wrap;rounded=0;fontFamily=Times New Roman;fontSize=14;" vertex="1" parent="1">
          <mxGeometry x="400" y="1540" width="40" height="20" as="geometry" />
        </mxCell>
        <mxCell id="uBOc1RX5nlmYOmLGZq0Z-241" style="edgeStyle=orthogonalEdgeStyle;rounded=0;orthogonalLoop=1;jettySize=auto;html=1;exitX=0.5;exitY=1;exitDx=0;exitDy=0;entryX=0.5;entryY=0;entryDx=0;entryDy=0;" edge="1" parent="1" source="uBOc1RX5nlmYOmLGZq0Z-203" target="uBOc1RX5nlmYOmLGZq0Z-211">
          <mxGeometry relative="1" as="geometry">
            <Array as="points">
              <mxPoint x="460" y="1590" />
              <mxPoint x="380" y="1590" />
            </Array>
          </mxGeometry>
        </mxCell>
        <mxCell id="uBOc1RX5nlmYOmLGZq0Z-203" value="5" style="text;html=1;align=center;verticalAlign=middle;whiteSpace=wrap;rounded=0;fontFamily=Times New Roman;fontSize=14;" vertex="1" parent="1">
          <mxGeometry x="440" y="1540" width="40" height="20" as="geometry" />
        </mxCell>
        <mxCell id="uBOc1RX5nlmYOmLGZq0Z-204" value="6" style="text;html=1;align=center;verticalAlign=middle;whiteSpace=wrap;rounded=0;fontFamily=Times New Roman;fontSize=14;" vertex="1" parent="1">
          <mxGeometry x="480" y="1540" width="40" height="20" as="geometry" />
        </mxCell>
        <mxCell id="uBOc1RX5nlmYOmLGZq0Z-206" value="7" style="text;html=1;align=center;verticalAlign=middle;whiteSpace=wrap;rounded=0;fontFamily=Times New Roman;fontSize=14;" vertex="1" parent="1">
          <mxGeometry x="520" y="1540" width="40" height="20" as="geometry" />
        </mxCell>
        <mxCell id="uBOc1RX5nlmYOmLGZq0Z-207" value="Input Array" style="rounded=1;whiteSpace=wrap;html=1;fontFamily=Times New Roman;fontSize=18;" vertex="1" parent="1">
          <mxGeometry x="40" y="1500" width="120" height="40" as="geometry" />
        </mxCell>
        <mxCell id="uBOc1RX5nlmYOmLGZq0Z-208" value="1" style="rounded=0;whiteSpace=wrap;html=1;fontSize=18;fontFamily=Times New Roman;" vertex="1" parent="1">
          <mxGeometry x="240" y="1620" width="40" height="40" as="geometry" />
        </mxCell>
        <mxCell id="uBOc1RX5nlmYOmLGZq0Z-209" value="2" style="rounded=0;whiteSpace=wrap;html=1;fontSize=18;fontFamily=Times New Roman;" vertex="1" parent="1">
          <mxGeometry x="280" y="1620" width="40" height="40" as="geometry" />
        </mxCell>
        <mxCell id="uBOc1RX5nlmYOmLGZq0Z-210" value="4" style="rounded=0;whiteSpace=wrap;html=1;fontSize=18;fontFamily=Times New Roman;" vertex="1" parent="1">
          <mxGeometry x="320" y="1620" width="40" height="40" as="geometry" />
        </mxCell>
        <mxCell id="uBOc1RX5nlmYOmLGZq0Z-211" value="6" style="rounded=0;whiteSpace=wrap;html=1;fontSize=18;fontFamily=Times New Roman;" vertex="1" parent="1">
          <mxGeometry x="360" y="1620" width="40" height="40" as="geometry" />
        </mxCell>
        <mxCell id="uBOc1RX5nlmYOmLGZq0Z-212" value="7" style="rounded=0;whiteSpace=wrap;html=1;fontSize=18;fontFamily=Times New Roman;" vertex="1" parent="1">
          <mxGeometry x="400" y="1620" width="40" height="40" as="geometry" />
        </mxCell>
        <mxCell id="uBOc1RX5nlmYOmLGZq0Z-214" value="0" style="text;html=1;align=center;verticalAlign=middle;whiteSpace=wrap;rounded=0;fontFamily=Times New Roman;fontSize=14;" vertex="1" parent="1">
          <mxGeometry x="240" y="1660" width="40" height="20" as="geometry" />
        </mxCell>
        <mxCell id="uBOc1RX5nlmYOmLGZq0Z-215" value="1" style="text;html=1;align=center;verticalAlign=middle;whiteSpace=wrap;rounded=0;fontFamily=Times New Roman;fontSize=14;" vertex="1" parent="1">
          <mxGeometry x="280" y="1660" width="40" height="20" as="geometry" />
        </mxCell>
        <mxCell id="uBOc1RX5nlmYOmLGZq0Z-216" value="2" style="text;html=1;align=center;verticalAlign=middle;whiteSpace=wrap;rounded=0;fontFamily=Times New Roman;fontSize=14;" vertex="1" parent="1">
          <mxGeometry x="320" y="1660" width="40" height="20" as="geometry" />
        </mxCell>
        <mxCell id="uBOc1RX5nlmYOmLGZq0Z-242" style="edgeStyle=orthogonalEdgeStyle;rounded=0;orthogonalLoop=1;jettySize=auto;html=1;exitX=0.5;exitY=1;exitDx=0;exitDy=0;entryX=0.5;entryY=0;entryDx=0;entryDy=0;" edge="1" parent="1" source="uBOc1RX5nlmYOmLGZq0Z-217" target="uBOc1RX5nlmYOmLGZq0Z-227">
          <mxGeometry relative="1" as="geometry" />
        </mxCell>
        <mxCell id="uBOc1RX5nlmYOmLGZq0Z-217" value="3" style="text;html=1;align=center;verticalAlign=middle;whiteSpace=wrap;rounded=0;fontFamily=Times New Roman;fontSize=14;" vertex="1" parent="1">
          <mxGeometry x="360" y="1660" width="40" height="20" as="geometry" />
        </mxCell>
        <mxCell id="uBOc1RX5nlmYOmLGZq0Z-218" value="4" style="text;html=1;align=center;verticalAlign=middle;whiteSpace=wrap;rounded=0;fontFamily=Times New Roman;fontSize=14;" vertex="1" parent="1">
          <mxGeometry x="400" y="1660" width="40" height="20" as="geometry" />
        </mxCell>
        <mxCell id="uBOc1RX5nlmYOmLGZq0Z-219" value="Count Array" style="rounded=1;whiteSpace=wrap;html=1;fontFamily=Times New Roman;fontSize=18;" vertex="1" parent="1">
          <mxGeometry x="40" y="1620" width="120" height="40" as="geometry" />
        </mxCell>
        <mxCell id="uBOc1RX5nlmYOmLGZq0Z-220" value="8" style="rounded=0;whiteSpace=wrap;html=1;fontSize=18;fontFamily=Times New Roman;" vertex="1" parent="1">
          <mxGeometry x="440" y="1620" width="40" height="40" as="geometry" />
        </mxCell>
        <mxCell id="uBOc1RX5nlmYOmLGZq0Z-221" value="5" style="text;html=1;align=center;verticalAlign=middle;whiteSpace=wrap;rounded=0;fontFamily=Times New Roman;fontSize=14;" vertex="1" parent="1">
          <mxGeometry x="440" y="1660" width="40" height="20" as="geometry" />
        </mxCell>
        <mxCell id="uBOc1RX5nlmYOmLGZq0Z-222" value="" style="rounded=0;whiteSpace=wrap;html=1;fontSize=18;fontFamily=Times New Roman;" vertex="1" parent="1">
          <mxGeometry x="240" y="1740" width="40" height="40" as="geometry" />
        </mxCell>
        <mxCell id="uBOc1RX5nlmYOmLGZq0Z-223" value="0" style="rounded=0;whiteSpace=wrap;html=1;fontSize=18;fontFamily=Times New Roman;fillColor=#CCFFCC;" vertex="1" parent="1">
          <mxGeometry x="280" y="1740" width="40" height="40" as="geometry" />
        </mxCell>
        <mxCell id="uBOc1RX5nlmYOmLGZq0Z-224" value="" style="rounded=0;whiteSpace=wrap;html=1;fontSize=18;fontFamily=Times New Roman;" vertex="1" parent="1">
          <mxGeometry x="320" y="1740" width="40" height="40" as="geometry" />
        </mxCell>
        <mxCell id="uBOc1RX5nlmYOmLGZq0Z-225" value="" style="rounded=0;whiteSpace=wrap;html=1;fontSize=18;fontFamily=Times New Roman;" vertex="1" parent="1">
          <mxGeometry x="360" y="1740" width="40" height="40" as="geometry" />
        </mxCell>
        <mxCell id="uBOc1RX5nlmYOmLGZq0Z-226" value="" style="rounded=0;whiteSpace=wrap;html=1;fontSize=18;fontFamily=Times New Roman;" vertex="1" parent="1">
          <mxGeometry x="400" y="1740" width="40" height="40" as="geometry" />
        </mxCell>
        <mxCell id="uBOc1RX5nlmYOmLGZq0Z-227" value="3" style="rounded=0;whiteSpace=wrap;html=1;fontSize=18;fontFamily=Times New Roman;fillColor=#CCFFCC;" vertex="1" parent="1">
          <mxGeometry x="440" y="1740" width="40" height="40" as="geometry" />
        </mxCell>
        <mxCell id="uBOc1RX5nlmYOmLGZq0Z-228" value="3" style="rounded=0;whiteSpace=wrap;html=1;fontSize=18;fontFamily=Times New Roman;strokeColor=#000000;fillColor=#CCFFCC;" vertex="1" parent="1">
          <mxGeometry x="480" y="1740" width="40" height="40" as="geometry" />
        </mxCell>
        <mxCell id="uBOc1RX5nlmYOmLGZq0Z-229" value="" style="rounded=0;whiteSpace=wrap;html=1;fontSize=18;fontFamily=Times New Roman;" vertex="1" parent="1">
          <mxGeometry x="520" y="1740" width="40" height="40" as="geometry" />
        </mxCell>
        <mxCell id="uBOc1RX5nlmYOmLGZq0Z-230" value="0" style="text;html=1;align=center;verticalAlign=middle;whiteSpace=wrap;rounded=0;fontFamily=Times New Roman;fontSize=14;" vertex="1" parent="1">
          <mxGeometry x="240" y="1780" width="40" height="20" as="geometry" />
        </mxCell>
        <mxCell id="uBOc1RX5nlmYOmLGZq0Z-231" value="1" style="text;html=1;align=center;verticalAlign=middle;whiteSpace=wrap;rounded=0;fontFamily=Times New Roman;fontSize=14;" vertex="1" parent="1">
          <mxGeometry x="280" y="1780" width="40" height="20" as="geometry" />
        </mxCell>
        <mxCell id="uBOc1RX5nlmYOmLGZq0Z-232" value="2" style="text;html=1;align=center;verticalAlign=middle;whiteSpace=wrap;rounded=0;fontFamily=Times New Roman;fontSize=14;" vertex="1" parent="1">
          <mxGeometry x="320" y="1780" width="40" height="20" as="geometry" />
        </mxCell>
        <mxCell id="uBOc1RX5nlmYOmLGZq0Z-233" value="3" style="text;html=1;align=center;verticalAlign=middle;whiteSpace=wrap;rounded=0;fontFamily=Times New Roman;fontSize=14;" vertex="1" parent="1">
          <mxGeometry x="360" y="1780" width="40" height="20" as="geometry" />
        </mxCell>
        <mxCell id="uBOc1RX5nlmYOmLGZq0Z-234" value="4" style="text;html=1;align=center;verticalAlign=middle;whiteSpace=wrap;rounded=0;fontFamily=Times New Roman;fontSize=14;" vertex="1" parent="1">
          <mxGeometry x="400" y="1780" width="40" height="20" as="geometry" />
        </mxCell>
        <mxCell id="uBOc1RX5nlmYOmLGZq0Z-235" value="5" style="text;html=1;align=center;verticalAlign=middle;whiteSpace=wrap;rounded=0;fontFamily=Times New Roman;fontSize=14;" vertex="1" parent="1">
          <mxGeometry x="440" y="1780" width="40" height="20" as="geometry" />
        </mxCell>
        <mxCell id="uBOc1RX5nlmYOmLGZq0Z-236" value="6" style="text;html=1;align=center;verticalAlign=middle;whiteSpace=wrap;rounded=0;fontFamily=Times New Roman;fontSize=14;" vertex="1" parent="1">
          <mxGeometry x="480" y="1780" width="40" height="20" as="geometry" />
        </mxCell>
        <mxCell id="uBOc1RX5nlmYOmLGZq0Z-237" value="7" style="text;html=1;align=center;verticalAlign=middle;whiteSpace=wrap;rounded=0;fontFamily=Times New Roman;fontSize=14;" vertex="1" parent="1">
          <mxGeometry x="520" y="1780" width="40" height="20" as="geometry" />
        </mxCell>
        <mxCell id="uBOc1RX5nlmYOmLGZq0Z-238" value="Output Array" style="rounded=1;whiteSpace=wrap;html=1;fontFamily=Times New Roman;fontSize=18;" vertex="1" parent="1">
          <mxGeometry x="40" y="1740" width="120" height="40" as="geometry" />
        </mxCell>
        <mxCell id="uBOc1RX5nlmYOmLGZq0Z-239" value="3" style="rounded=0;whiteSpace=wrap;html=1;fontSize=18;fontFamily=Times New Roman;" vertex="1" parent="1">
          <mxGeometry x="400" y="1570" width="40" height="40" as="geometry" />
        </mxCell>
        <mxCell id="uBOc1RX5nlmYOmLGZq0Z-240" value="6 - 1 = 5" style="rounded=0;whiteSpace=wrap;html=1;fontSize=18;fontFamily=Times New Roman;" vertex="1" parent="1">
          <mxGeometry x="340" y="1690" width="80" height="40" as="geometry" />
        </mxCell>
        <mxCell id="uBOc1RX5nlmYOmLGZq0Z-295" value="i = 7" style="rounded=1;whiteSpace=wrap;html=1;fontFamily=Times New Roman;fontSize=18;" vertex="1" parent="1">
          <mxGeometry x="40" y="640" width="120" height="40" as="geometry" />
        </mxCell>
        <mxCell id="uBOc1RX5nlmYOmLGZq0Z-296" value="i = 6" style="rounded=1;whiteSpace=wrap;html=1;fontFamily=Times New Roman;fontSize=18;" vertex="1" parent="1">
          <mxGeometry x="40" y="1040" width="120" height="40" as="geometry" />
        </mxCell>
        <mxCell id="uBOc1RX5nlmYOmLGZq0Z-297" value="i = 5" style="rounded=1;whiteSpace=wrap;html=1;fontFamily=Times New Roman;fontSize=18;" vertex="1" parent="1">
          <mxGeometry x="40" y="1440" width="120" height="40" as="geometry" />
        </mxCell>
        <mxCell id="uBOc1RX5nlmYOmLGZq0Z-298" value="" style="rounded=0;whiteSpace=wrap;html=1;strokeColor=none;" vertex="1" parent="1">
          <mxGeometry x="40" y="1840" width="720" height="400" as="geometry" />
        </mxCell>
        <mxCell id="uBOc1RX5nlmYOmLGZq0Z-299" value="2" style="rounded=0;whiteSpace=wrap;html=1;fontSize=18;fontFamily=Times New Roman;fillColor=#CCFFCC;" vertex="1" parent="1">
          <mxGeometry x="240" y="1940" width="40" height="40" as="geometry" />
        </mxCell>
        <mxCell id="uBOc1RX5nlmYOmLGZq0Z-300" value="5" style="rounded=0;whiteSpace=wrap;html=1;fontSize=18;fontFamily=Times New Roman;fillColor=#CCFFCC;" vertex="1" parent="1">
          <mxGeometry x="280" y="1940" width="40" height="40" as="geometry" />
        </mxCell>
        <mxCell id="uBOc1RX5nlmYOmLGZq0Z-301" value="3" style="rounded=0;whiteSpace=wrap;html=1;fontSize=18;fontFamily=Times New Roman;fillColor=#CCFFCC;" vertex="1" parent="1">
          <mxGeometry x="320" y="1940" width="40" height="40" as="geometry" />
        </mxCell>
        <mxCell id="uBOc1RX5nlmYOmLGZq0Z-302" value="0" style="rounded=0;whiteSpace=wrap;html=1;fontSize=18;fontFamily=Times New Roman;fillColor=#CCFFCC;" vertex="1" parent="1">
          <mxGeometry x="360" y="1940" width="40" height="40" as="geometry" />
        </mxCell>
        <mxCell id="uBOc1RX5nlmYOmLGZq0Z-303" value="2" style="rounded=0;whiteSpace=wrap;html=1;fontSize=18;fontFamily=Times New Roman;fillColor=#CCFFCC;" vertex="1" parent="1">
          <mxGeometry x="400" y="1940" width="40" height="40" as="geometry" />
        </mxCell>
        <mxCell id="uBOc1RX5nlmYOmLGZq0Z-304" value="3" style="rounded=0;whiteSpace=wrap;html=1;fontSize=18;fontFamily=Times New Roman;fillColor=#CCFFCC;" vertex="1" parent="1">
          <mxGeometry x="440" y="1940" width="40" height="40" as="geometry" />
        </mxCell>
        <mxCell id="uBOc1RX5nlmYOmLGZq0Z-305" value="0" style="rounded=0;whiteSpace=wrap;html=1;fontSize=18;fontFamily=Times New Roman;fillColor=#CCFFCC;" vertex="1" parent="1">
          <mxGeometry x="480" y="1940" width="40" height="40" as="geometry" />
        </mxCell>
        <mxCell id="uBOc1RX5nlmYOmLGZq0Z-306" value="3" style="rounded=0;whiteSpace=wrap;html=1;fontSize=18;fontFamily=Times New Roman;fillColor=#CCFFCC;strokeColor=#000000;" vertex="1" parent="1">
          <mxGeometry x="520" y="1940" width="40" height="40" as="geometry" />
        </mxCell>
        <mxCell id="uBOc1RX5nlmYOmLGZq0Z-352" style="edgeStyle=orthogonalEdgeStyle;rounded=0;orthogonalLoop=1;jettySize=auto;html=1;exitX=0.5;exitY=1;exitDx=0;exitDy=0;entryX=0.5;entryY=0;entryDx=0;entryDy=0;" edge="1" parent="1" source="uBOc1RX5nlmYOmLGZq0Z-307" target="uBOc1RX5nlmYOmLGZq0Z-319">
          <mxGeometry relative="1" as="geometry" />
        </mxCell>
        <mxCell id="uBOc1RX5nlmYOmLGZq0Z-307" value="0" style="text;html=1;align=center;verticalAlign=middle;whiteSpace=wrap;rounded=0;fontFamily=Times New Roman;fontSize=14;" vertex="1" parent="1">
          <mxGeometry x="240" y="1980" width="40" height="20" as="geometry" />
        </mxCell>
        <mxCell id="uBOc1RX5nlmYOmLGZq0Z-308" value="1" style="text;html=1;align=center;verticalAlign=middle;whiteSpace=wrap;rounded=0;fontFamily=Times New Roman;fontSize=14;" vertex="1" parent="1">
          <mxGeometry x="280" y="1980" width="40" height="20" as="geometry" />
        </mxCell>
        <mxCell id="uBOc1RX5nlmYOmLGZq0Z-309" value="2" style="text;html=1;align=center;verticalAlign=middle;whiteSpace=wrap;rounded=0;fontFamily=Times New Roman;fontSize=14;" vertex="1" parent="1">
          <mxGeometry x="320" y="1980" width="40" height="20" as="geometry" />
        </mxCell>
        <mxCell id="uBOc1RX5nlmYOmLGZq0Z-310" value="3" style="text;html=1;align=center;verticalAlign=middle;whiteSpace=wrap;rounded=0;fontFamily=Times New Roman;fontSize=14;" vertex="1" parent="1">
          <mxGeometry x="360" y="1980" width="40" height="20" as="geometry" />
        </mxCell>
        <mxCell id="uBOc1RX5nlmYOmLGZq0Z-311" value="4" style="text;html=1;align=center;verticalAlign=middle;whiteSpace=wrap;rounded=0;fontFamily=Times New Roman;fontSize=14;" vertex="1" parent="1">
          <mxGeometry x="400" y="1980" width="40" height="20" as="geometry" />
        </mxCell>
        <mxCell id="uBOc1RX5nlmYOmLGZq0Z-313" value="5" style="text;html=1;align=center;verticalAlign=middle;whiteSpace=wrap;rounded=0;fontFamily=Times New Roman;fontSize=14;" vertex="1" parent="1">
          <mxGeometry x="440" y="1980" width="40" height="20" as="geometry" />
        </mxCell>
        <mxCell id="uBOc1RX5nlmYOmLGZq0Z-314" value="6" style="text;html=1;align=center;verticalAlign=middle;whiteSpace=wrap;rounded=0;fontFamily=Times New Roman;fontSize=14;" vertex="1" parent="1">
          <mxGeometry x="480" y="1980" width="40" height="20" as="geometry" />
        </mxCell>
        <mxCell id="uBOc1RX5nlmYOmLGZq0Z-315" value="7" style="text;html=1;align=center;verticalAlign=middle;whiteSpace=wrap;rounded=0;fontFamily=Times New Roman;fontSize=14;" vertex="1" parent="1">
          <mxGeometry x="520" y="1980" width="40" height="20" as="geometry" />
        </mxCell>
        <mxCell id="uBOc1RX5nlmYOmLGZq0Z-316" value="Input Array" style="rounded=1;whiteSpace=wrap;html=1;fontFamily=Times New Roman;fontSize=18;" vertex="1" parent="1">
          <mxGeometry x="40" y="1940" width="120" height="40" as="geometry" />
        </mxCell>
        <mxCell id="uBOc1RX5nlmYOmLGZq0Z-317" value="0" style="rounded=0;whiteSpace=wrap;html=1;fontSize=18;fontFamily=Times New Roman;" vertex="1" parent="1">
          <mxGeometry x="240" y="2060" width="40" height="40" as="geometry" />
        </mxCell>
        <mxCell id="uBOc1RX5nlmYOmLGZq0Z-318" value="2" style="rounded=0;whiteSpace=wrap;html=1;fontSize=18;fontFamily=Times New Roman;" vertex="1" parent="1">
          <mxGeometry x="280" y="2060" width="40" height="40" as="geometry" />
        </mxCell>
        <mxCell id="uBOc1RX5nlmYOmLGZq0Z-319" value="3" style="rounded=0;whiteSpace=wrap;html=1;fontSize=18;fontFamily=Times New Roman;" vertex="1" parent="1">
          <mxGeometry x="320" y="2060" width="40" height="40" as="geometry" />
        </mxCell>
        <mxCell id="uBOc1RX5nlmYOmLGZq0Z-320" value="4" style="rounded=0;whiteSpace=wrap;html=1;fontSize=18;fontFamily=Times New Roman;" vertex="1" parent="1">
          <mxGeometry x="360" y="2060" width="40" height="40" as="geometry" />
        </mxCell>
        <mxCell id="uBOc1RX5nlmYOmLGZq0Z-321" value="7" style="rounded=0;whiteSpace=wrap;html=1;fontSize=18;fontFamily=Times New Roman;" vertex="1" parent="1">
          <mxGeometry x="400" y="2060" width="40" height="40" as="geometry" />
        </mxCell>
        <mxCell id="uBOc1RX5nlmYOmLGZq0Z-322" value="0" style="text;html=1;align=center;verticalAlign=middle;whiteSpace=wrap;rounded=0;fontFamily=Times New Roman;fontSize=14;" vertex="1" parent="1">
          <mxGeometry x="240" y="2100" width="40" height="20" as="geometry" />
        </mxCell>
        <mxCell id="uBOc1RX5nlmYOmLGZq0Z-323" value="1" style="text;html=1;align=center;verticalAlign=middle;whiteSpace=wrap;rounded=0;fontFamily=Times New Roman;fontSize=14;" vertex="1" parent="1">
          <mxGeometry x="280" y="2100" width="40" height="20" as="geometry" />
        </mxCell>
        <mxCell id="uBOc1RX5nlmYOmLGZq0Z-353" style="edgeStyle=orthogonalEdgeStyle;rounded=0;orthogonalLoop=1;jettySize=auto;html=1;exitX=0.5;exitY=1;exitDx=0;exitDy=0;entryX=0.5;entryY=0;entryDx=0;entryDy=0;" edge="1" parent="1" source="uBOc1RX5nlmYOmLGZq0Z-324" target="uBOc1RX5nlmYOmLGZq0Z-333">
          <mxGeometry relative="1" as="geometry" />
        </mxCell>
        <mxCell id="uBOc1RX5nlmYOmLGZq0Z-324" value="2" style="text;html=1;align=center;verticalAlign=middle;whiteSpace=wrap;rounded=0;fontFamily=Times New Roman;fontSize=14;" vertex="1" parent="1">
          <mxGeometry x="320" y="2100" width="40" height="20" as="geometry" />
        </mxCell>
        <mxCell id="uBOc1RX5nlmYOmLGZq0Z-326" value="3" style="text;html=1;align=center;verticalAlign=middle;whiteSpace=wrap;rounded=0;fontFamily=Times New Roman;fontSize=14;" vertex="1" parent="1">
          <mxGeometry x="360" y="2100" width="40" height="20" as="geometry" />
        </mxCell>
        <mxCell id="uBOc1RX5nlmYOmLGZq0Z-327" value="4" style="text;html=1;align=center;verticalAlign=middle;whiteSpace=wrap;rounded=0;fontFamily=Times New Roman;fontSize=14;" vertex="1" parent="1">
          <mxGeometry x="400" y="2100" width="40" height="20" as="geometry" />
        </mxCell>
        <mxCell id="uBOc1RX5nlmYOmLGZq0Z-328" value="Count Array" style="rounded=1;whiteSpace=wrap;html=1;fontFamily=Times New Roman;fontSize=18;" vertex="1" parent="1">
          <mxGeometry x="40" y="2060" width="120" height="40" as="geometry" />
        </mxCell>
        <mxCell id="uBOc1RX5nlmYOmLGZq0Z-329" value="7" style="rounded=0;whiteSpace=wrap;html=1;fontSize=18;fontFamily=Times New Roman;" vertex="1" parent="1">
          <mxGeometry x="440" y="2060" width="40" height="40" as="geometry" />
        </mxCell>
        <mxCell id="uBOc1RX5nlmYOmLGZq0Z-330" value="5" style="text;html=1;align=center;verticalAlign=middle;whiteSpace=wrap;rounded=0;fontFamily=Times New Roman;fontSize=14;" vertex="1" parent="1">
          <mxGeometry x="440" y="2100" width="40" height="20" as="geometry" />
        </mxCell>
        <mxCell id="uBOc1RX5nlmYOmLGZq0Z-331" value="0" style="rounded=0;whiteSpace=wrap;html=1;fontSize=18;fontFamily=Times New Roman;fillColor=#CCFFCC;" vertex="1" parent="1">
          <mxGeometry x="240" y="2180" width="40" height="40" as="geometry" />
        </mxCell>
        <mxCell id="uBOc1RX5nlmYOmLGZq0Z-332" value="0" style="rounded=0;whiteSpace=wrap;html=1;fontSize=18;fontFamily=Times New Roman;fillColor=#CCFFCC;" vertex="1" parent="1">
          <mxGeometry x="280" y="2180" width="40" height="40" as="geometry" />
        </mxCell>
        <mxCell id="uBOc1RX5nlmYOmLGZq0Z-333" value="2" style="rounded=0;whiteSpace=wrap;html=1;fontSize=18;fontFamily=Times New Roman;fillColor=#CCFFCC;" vertex="1" parent="1">
          <mxGeometry x="320" y="2180" width="40" height="40" as="geometry" />
        </mxCell>
        <mxCell id="uBOc1RX5nlmYOmLGZq0Z-334" value="2" style="rounded=0;whiteSpace=wrap;html=1;fontSize=18;fontFamily=Times New Roman;fillColor=#CCFFCC;" vertex="1" parent="1">
          <mxGeometry x="360" y="2180" width="40" height="40" as="geometry" />
        </mxCell>
        <mxCell id="uBOc1RX5nlmYOmLGZq0Z-335" value="3" style="rounded=0;whiteSpace=wrap;html=1;fontSize=18;fontFamily=Times New Roman;fillColor=#CCFFCC;" vertex="1" parent="1">
          <mxGeometry x="400" y="2180" width="40" height="40" as="geometry" />
        </mxCell>
        <mxCell id="uBOc1RX5nlmYOmLGZq0Z-336" value="3" style="rounded=0;whiteSpace=wrap;html=1;fontSize=18;fontFamily=Times New Roman;fillColor=#CCFFCC;" vertex="1" parent="1">
          <mxGeometry x="440" y="2180" width="40" height="40" as="geometry" />
        </mxCell>
        <mxCell id="uBOc1RX5nlmYOmLGZq0Z-337" value="3" style="rounded=0;whiteSpace=wrap;html=1;fontSize=18;fontFamily=Times New Roman;strokeColor=#000000;fillColor=#CCFFCC;" vertex="1" parent="1">
          <mxGeometry x="480" y="2180" width="40" height="40" as="geometry" />
        </mxCell>
        <mxCell id="uBOc1RX5nlmYOmLGZq0Z-338" value="5" style="rounded=0;whiteSpace=wrap;html=1;fontSize=18;fontFamily=Times New Roman;fillColor=#CCFFCC;" vertex="1" parent="1">
          <mxGeometry x="520" y="2180" width="40" height="40" as="geometry" />
        </mxCell>
        <mxCell id="uBOc1RX5nlmYOmLGZq0Z-339" value="0" style="text;html=1;align=center;verticalAlign=middle;whiteSpace=wrap;rounded=0;fontFamily=Times New Roman;fontSize=14;" vertex="1" parent="1">
          <mxGeometry x="240" y="2220" width="40" height="20" as="geometry" />
        </mxCell>
        <mxCell id="uBOc1RX5nlmYOmLGZq0Z-340" value="1" style="text;html=1;align=center;verticalAlign=middle;whiteSpace=wrap;rounded=0;fontFamily=Times New Roman;fontSize=14;" vertex="1" parent="1">
          <mxGeometry x="280" y="2220" width="40" height="20" as="geometry" />
        </mxCell>
        <mxCell id="uBOc1RX5nlmYOmLGZq0Z-341" value="2" style="text;html=1;align=center;verticalAlign=middle;whiteSpace=wrap;rounded=0;fontFamily=Times New Roman;fontSize=14;" vertex="1" parent="1">
          <mxGeometry x="320" y="2220" width="40" height="20" as="geometry" />
        </mxCell>
        <mxCell id="uBOc1RX5nlmYOmLGZq0Z-342" value="3" style="text;html=1;align=center;verticalAlign=middle;whiteSpace=wrap;rounded=0;fontFamily=Times New Roman;fontSize=14;" vertex="1" parent="1">
          <mxGeometry x="360" y="2220" width="40" height="20" as="geometry" />
        </mxCell>
        <mxCell id="uBOc1RX5nlmYOmLGZq0Z-343" value="4" style="text;html=1;align=center;verticalAlign=middle;whiteSpace=wrap;rounded=0;fontFamily=Times New Roman;fontSize=14;" vertex="1" parent="1">
          <mxGeometry x="400" y="2220" width="40" height="20" as="geometry" />
        </mxCell>
        <mxCell id="uBOc1RX5nlmYOmLGZq0Z-344" value="5" style="text;html=1;align=center;verticalAlign=middle;whiteSpace=wrap;rounded=0;fontFamily=Times New Roman;fontSize=14;" vertex="1" parent="1">
          <mxGeometry x="440" y="2220" width="40" height="20" as="geometry" />
        </mxCell>
        <mxCell id="uBOc1RX5nlmYOmLGZq0Z-345" value="6" style="text;html=1;align=center;verticalAlign=middle;whiteSpace=wrap;rounded=0;fontFamily=Times New Roman;fontSize=14;" vertex="1" parent="1">
          <mxGeometry x="480" y="2220" width="40" height="20" as="geometry" />
        </mxCell>
        <mxCell id="uBOc1RX5nlmYOmLGZq0Z-346" value="7" style="text;html=1;align=center;verticalAlign=middle;whiteSpace=wrap;rounded=0;fontFamily=Times New Roman;fontSize=14;" vertex="1" parent="1">
          <mxGeometry x="520" y="2220" width="40" height="20" as="geometry" />
        </mxCell>
        <mxCell id="uBOc1RX5nlmYOmLGZq0Z-347" value="Output Array" style="rounded=1;whiteSpace=wrap;html=1;fontFamily=Times New Roman;fontSize=18;" vertex="1" parent="1">
          <mxGeometry x="40" y="2180" width="120" height="40" as="geometry" />
        </mxCell>
        <mxCell id="uBOc1RX5nlmYOmLGZq0Z-348" value="2" style="rounded=0;whiteSpace=wrap;html=1;fontSize=18;fontFamily=Times New Roman;" vertex="1" parent="1">
          <mxGeometry x="280" y="2010" width="40" height="40" as="geometry" />
        </mxCell>
        <mxCell id="uBOc1RX5nlmYOmLGZq0Z-349" value="3 - 1 = 2" style="rounded=0;whiteSpace=wrap;html=1;fontSize=18;fontFamily=Times New Roman;" vertex="1" parent="1">
          <mxGeometry x="300" y="2125" width="80" height="40" as="geometry" />
        </mxCell>
        <mxCell id="uBOc1RX5nlmYOmLGZq0Z-350" value="i = 0" style="rounded=1;whiteSpace=wrap;html=1;fontFamily=Times New Roman;fontSize=18;" vertex="1" parent="1">
          <mxGeometry x="40" y="1880" width="120" height="40" as="geometry" />
        </mxCell>
        <mxCell id="uBOc1RX5nlmYOmLGZq0Z-351" value="Repeat the process until i = 0" style="rounded=1;whiteSpace=wrap;html=1;fontFamily=Times New Roman;fontSize=18;strokeColor=none;" vertex="1" parent="1">
          <mxGeometry x="240" y="1840" width="320" height="40" as="geometry" />
        </mxCell>
        <mxCell id="uBOc1RX5nlmYOmLGZq0Z-356" value="" style="rounded=0;whiteSpace=wrap;html=1;strokeColor=none;" vertex="1" parent="1">
          <mxGeometry x="40" y="2290" width="720" height="70" as="geometry" />
        </mxCell>
        <mxCell id="uBOc1RX5nlmYOmLGZq0Z-373" value="Sorted Array" style="rounded=1;whiteSpace=wrap;html=1;fontFamily=Times New Roman;fontSize=18;" vertex="1" parent="1">
          <mxGeometry x="40" y="2300" width="120" height="40" as="geometry" />
        </mxCell>
        <mxCell id="uBOc1RX5nlmYOmLGZq0Z-374" value="0" style="rounded=0;whiteSpace=wrap;html=1;fontSize=18;fontFamily=Times New Roman;fillColor=#CCFFCC;" vertex="1" parent="1">
          <mxGeometry x="240" y="2300" width="40" height="40" as="geometry" />
        </mxCell>
        <mxCell id="uBOc1RX5nlmYOmLGZq0Z-375" value="0" style="rounded=0;whiteSpace=wrap;html=1;fontSize=18;fontFamily=Times New Roman;fillColor=#CCFFCC;" vertex="1" parent="1">
          <mxGeometry x="280" y="2300" width="40" height="40" as="geometry" />
        </mxCell>
        <mxCell id="uBOc1RX5nlmYOmLGZq0Z-376" value="2" style="rounded=0;whiteSpace=wrap;html=1;fontSize=18;fontFamily=Times New Roman;fillColor=#CCFFCC;" vertex="1" parent="1">
          <mxGeometry x="320" y="2300" width="40" height="40" as="geometry" />
        </mxCell>
        <mxCell id="uBOc1RX5nlmYOmLGZq0Z-377" value="2" style="rounded=0;whiteSpace=wrap;html=1;fontSize=18;fontFamily=Times New Roman;fillColor=#CCFFCC;" vertex="1" parent="1">
          <mxGeometry x="360" y="2300" width="40" height="40" as="geometry" />
        </mxCell>
        <mxCell id="uBOc1RX5nlmYOmLGZq0Z-378" value="3" style="rounded=0;whiteSpace=wrap;html=1;fontSize=18;fontFamily=Times New Roman;fillColor=#CCFFCC;" vertex="1" parent="1">
          <mxGeometry x="400" y="2300" width="40" height="40" as="geometry" />
        </mxCell>
        <mxCell id="uBOc1RX5nlmYOmLGZq0Z-379" value="3" style="rounded=0;whiteSpace=wrap;html=1;fontSize=18;fontFamily=Times New Roman;fillColor=#CCFFCC;" vertex="1" parent="1">
          <mxGeometry x="440" y="2300" width="40" height="40" as="geometry" />
        </mxCell>
        <mxCell id="uBOc1RX5nlmYOmLGZq0Z-380" value="3" style="rounded=0;whiteSpace=wrap;html=1;fontSize=18;fontFamily=Times New Roman;strokeColor=#000000;fillColor=#CCFFCC;" vertex="1" parent="1">
          <mxGeometry x="480" y="2300" width="40" height="40" as="geometry" />
        </mxCell>
        <mxCell id="uBOc1RX5nlmYOmLGZq0Z-381" value="5" style="rounded=0;whiteSpace=wrap;html=1;fontSize=18;fontFamily=Times New Roman;fillColor=#CCFFCC;" vertex="1" parent="1">
          <mxGeometry x="520" y="2300" width="40" height="40" as="geometry" />
        </mxCell>
        <mxCell id="uBOc1RX5nlmYOmLGZq0Z-382" value="0" style="text;html=1;align=center;verticalAlign=middle;whiteSpace=wrap;rounded=0;fontFamily=Times New Roman;fontSize=14;" vertex="1" parent="1">
          <mxGeometry x="240" y="2340" width="40" height="20" as="geometry" />
        </mxCell>
        <mxCell id="uBOc1RX5nlmYOmLGZq0Z-383" value="1" style="text;html=1;align=center;verticalAlign=middle;whiteSpace=wrap;rounded=0;fontFamily=Times New Roman;fontSize=14;" vertex="1" parent="1">
          <mxGeometry x="280" y="2340" width="40" height="20" as="geometry" />
        </mxCell>
        <mxCell id="uBOc1RX5nlmYOmLGZq0Z-384" value="2" style="text;html=1;align=center;verticalAlign=middle;whiteSpace=wrap;rounded=0;fontFamily=Times New Roman;fontSize=14;" vertex="1" parent="1">
          <mxGeometry x="320" y="2340" width="40" height="20" as="geometry" />
        </mxCell>
        <mxCell id="uBOc1RX5nlmYOmLGZq0Z-385" value="3" style="text;html=1;align=center;verticalAlign=middle;whiteSpace=wrap;rounded=0;fontFamily=Times New Roman;fontSize=14;" vertex="1" parent="1">
          <mxGeometry x="360" y="2340" width="40" height="20" as="geometry" />
        </mxCell>
        <mxCell id="uBOc1RX5nlmYOmLGZq0Z-386" value="4" style="text;html=1;align=center;verticalAlign=middle;whiteSpace=wrap;rounded=0;fontFamily=Times New Roman;fontSize=14;" vertex="1" parent="1">
          <mxGeometry x="400" y="2340" width="40" height="20" as="geometry" />
        </mxCell>
        <mxCell id="uBOc1RX5nlmYOmLGZq0Z-387" value="5" style="text;html=1;align=center;verticalAlign=middle;whiteSpace=wrap;rounded=0;fontFamily=Times New Roman;fontSize=14;" vertex="1" parent="1">
          <mxGeometry x="440" y="2340" width="40" height="20" as="geometry" />
        </mxCell>
        <mxCell id="uBOc1RX5nlmYOmLGZq0Z-388" value="6" style="text;html=1;align=center;verticalAlign=middle;whiteSpace=wrap;rounded=0;fontFamily=Times New Roman;fontSize=14;" vertex="1" parent="1">
          <mxGeometry x="480" y="2340" width="40" height="20" as="geometry" />
        </mxCell>
        <mxCell id="uBOc1RX5nlmYOmLGZq0Z-389" value="7" style="text;html=1;align=center;verticalAlign=middle;whiteSpace=wrap;rounded=0;fontFamily=Times New Roman;fontSize=14;" vertex="1" parent="1">
          <mxGeometry x="520" y="2340" width="40" height="20" as="geometry" />
        </mxCell>
        <mxCell id="uBOc1RX5nlmYOmLGZq0Z-390" value="" style="rounded=0;whiteSpace=wrap;html=1;strokeColor=none;" vertex="1" parent="1">
          <mxGeometry x="960" y="190" width="720" height="70" as="geometry" />
        </mxCell>
        <mxCell id="uBOc1RX5nlmYOmLGZq0Z-391" value="170" style="rounded=0;whiteSpace=wrap;html=1;fontSize=18;fontFamily=Times New Roman;" vertex="1" parent="1">
          <mxGeometry x="1160" y="200" width="40" height="40" as="geometry" />
        </mxCell>
        <mxCell id="uBOc1RX5nlmYOmLGZq0Z-392" value="45" style="rounded=0;whiteSpace=wrap;html=1;fontSize=18;fontFamily=Times New Roman;" vertex="1" parent="1">
          <mxGeometry x="1200" y="200" width="40" height="40" as="geometry" />
        </mxCell>
        <mxCell id="uBOc1RX5nlmYOmLGZq0Z-393" value="75" style="rounded=0;whiteSpace=wrap;html=1;fontSize=18;fontFamily=Times New Roman;" vertex="1" parent="1">
          <mxGeometry x="1240" y="200" width="40" height="40" as="geometry" />
        </mxCell>
        <mxCell id="uBOc1RX5nlmYOmLGZq0Z-394" value="90" style="rounded=0;whiteSpace=wrap;html=1;fontSize=18;fontFamily=Times New Roman;" vertex="1" parent="1">
          <mxGeometry x="1280" y="200" width="40" height="40" as="geometry" />
        </mxCell>
        <mxCell id="uBOc1RX5nlmYOmLGZq0Z-395" value="802" style="rounded=0;whiteSpace=wrap;html=1;fontSize=18;fontFamily=Times New Roman;" vertex="1" parent="1">
          <mxGeometry x="1320" y="200" width="40" height="40" as="geometry" />
        </mxCell>
        <mxCell id="uBOc1RX5nlmYOmLGZq0Z-396" value="24" style="rounded=0;whiteSpace=wrap;html=1;fontSize=18;fontFamily=Times New Roman;" vertex="1" parent="1">
          <mxGeometry x="1360" y="200" width="40" height="40" as="geometry" />
        </mxCell>
        <mxCell id="uBOc1RX5nlmYOmLGZq0Z-397" value="2" style="rounded=0;whiteSpace=wrap;html=1;fontSize=18;fontFamily=Times New Roman;" vertex="1" parent="1">
          <mxGeometry x="1400" y="200" width="40" height="40" as="geometry" />
        </mxCell>
        <mxCell id="uBOc1RX5nlmYOmLGZq0Z-398" value="66" style="rounded=0;whiteSpace=wrap;html=1;fontSize=18;fontFamily=Times New Roman;" vertex="1" parent="1">
          <mxGeometry x="1440" y="200" width="40" height="40" as="geometry" />
        </mxCell>
        <mxCell id="uBOc1RX5nlmYOmLGZq0Z-399" value="0" style="text;html=1;align=center;verticalAlign=middle;whiteSpace=wrap;rounded=0;fontFamily=Times New Roman;fontSize=14;" vertex="1" parent="1">
          <mxGeometry x="1160" y="240" width="40" height="20" as="geometry" />
        </mxCell>
        <mxCell id="uBOc1RX5nlmYOmLGZq0Z-400" value="1" style="text;html=1;align=center;verticalAlign=middle;whiteSpace=wrap;rounded=0;fontFamily=Times New Roman;fontSize=14;" vertex="1" parent="1">
          <mxGeometry x="1200" y="240" width="40" height="20" as="geometry" />
        </mxCell>
        <mxCell id="uBOc1RX5nlmYOmLGZq0Z-401" value="2" style="text;html=1;align=center;verticalAlign=middle;whiteSpace=wrap;rounded=0;fontFamily=Times New Roman;fontSize=14;" vertex="1" parent="1">
          <mxGeometry x="1240" y="240" width="40" height="20" as="geometry" />
        </mxCell>
        <mxCell id="uBOc1RX5nlmYOmLGZq0Z-402" value="3" style="text;html=1;align=center;verticalAlign=middle;whiteSpace=wrap;rounded=0;fontFamily=Times New Roman;fontSize=14;" vertex="1" parent="1">
          <mxGeometry x="1280" y="240" width="40" height="20" as="geometry" />
        </mxCell>
        <mxCell id="uBOc1RX5nlmYOmLGZq0Z-403" value="4" style="text;html=1;align=center;verticalAlign=middle;whiteSpace=wrap;rounded=0;fontFamily=Times New Roman;fontSize=14;" vertex="1" parent="1">
          <mxGeometry x="1320" y="240" width="40" height="20" as="geometry" />
        </mxCell>
        <mxCell id="uBOc1RX5nlmYOmLGZq0Z-404" value="5" style="text;html=1;align=center;verticalAlign=middle;whiteSpace=wrap;rounded=0;fontFamily=Times New Roman;fontSize=14;" vertex="1" parent="1">
          <mxGeometry x="1360" y="240" width="40" height="20" as="geometry" />
        </mxCell>
        <mxCell id="uBOc1RX5nlmYOmLGZq0Z-405" value="6" style="text;html=1;align=center;verticalAlign=middle;whiteSpace=wrap;rounded=0;fontFamily=Times New Roman;fontSize=14;" vertex="1" parent="1">
          <mxGeometry x="1400" y="240" width="40" height="20" as="geometry" />
        </mxCell>
        <mxCell id="uBOc1RX5nlmYOmLGZq0Z-406" value="7" style="text;html=1;align=center;verticalAlign=middle;whiteSpace=wrap;rounded=0;fontFamily=Times New Roman;fontSize=14;" vertex="1" parent="1">
          <mxGeometry x="1440" y="240" width="40" height="20" as="geometry" />
        </mxCell>
        <mxCell id="uBOc1RX5nlmYOmLGZq0Z-407" value="Input Array" style="rounded=1;whiteSpace=wrap;html=1;fontFamily=Times New Roman;fontSize=18;" vertex="1" parent="1">
          <mxGeometry x="960" y="200" width="120" height="40" as="geometry" />
        </mxCell>
        <mxCell id="uBOc1RX5nlmYOmLGZq0Z-408" value="" style="rounded=0;whiteSpace=wrap;html=1;strokeColor=none;" vertex="1" parent="1">
          <mxGeometry x="960" y="320" width="720" height="230" as="geometry" />
        </mxCell>
        <mxCell id="uBOc1RX5nlmYOmLGZq0Z-409" value="17&lt;u&gt;0&lt;/u&gt;" style="rounded=0;whiteSpace=wrap;html=1;fontSize=18;fontFamily=Times New Roman;" vertex="1" parent="1">
          <mxGeometry x="1160" y="380" width="40" height="40" as="geometry" />
        </mxCell>
        <mxCell id="uBOc1RX5nlmYOmLGZq0Z-410" value="4&lt;u&gt;5&lt;/u&gt;" style="rounded=0;whiteSpace=wrap;html=1;fontSize=18;fontFamily=Times New Roman;" vertex="1" parent="1">
          <mxGeometry x="1200" y="380" width="40" height="40" as="geometry" />
        </mxCell>
        <mxCell id="uBOc1RX5nlmYOmLGZq0Z-411" value="7&lt;u&gt;5&lt;/u&gt;" style="rounded=0;whiteSpace=wrap;html=1;fontSize=18;fontFamily=Times New Roman;" vertex="1" parent="1">
          <mxGeometry x="1240" y="380" width="40" height="40" as="geometry" />
        </mxCell>
        <mxCell id="uBOc1RX5nlmYOmLGZq0Z-412" value="9&lt;u&gt;0&lt;/u&gt;" style="rounded=0;whiteSpace=wrap;html=1;fontSize=18;fontFamily=Times New Roman;" vertex="1" parent="1">
          <mxGeometry x="1280" y="380" width="40" height="40" as="geometry" />
        </mxCell>
        <mxCell id="uBOc1RX5nlmYOmLGZq0Z-413" value="80&lt;u&gt;2&lt;/u&gt;" style="rounded=0;whiteSpace=wrap;html=1;fontSize=18;fontFamily=Times New Roman;" vertex="1" parent="1">
          <mxGeometry x="1320" y="380" width="40" height="40" as="geometry" />
        </mxCell>
        <mxCell id="uBOc1RX5nlmYOmLGZq0Z-414" value="2&lt;u&gt;4&lt;/u&gt;" style="rounded=0;whiteSpace=wrap;html=1;fontSize=18;fontFamily=Times New Roman;" vertex="1" parent="1">
          <mxGeometry x="1360" y="380" width="40" height="40" as="geometry" />
        </mxCell>
        <mxCell id="uBOc1RX5nlmYOmLGZq0Z-415" value="&lt;u&gt;2&lt;/u&gt;" style="rounded=0;whiteSpace=wrap;html=1;fontSize=18;fontFamily=Times New Roman;" vertex="1" parent="1">
          <mxGeometry x="1400" y="380" width="40" height="40" as="geometry" />
        </mxCell>
        <mxCell id="uBOc1RX5nlmYOmLGZq0Z-416" value="6&lt;u&gt;6&lt;/u&gt;" style="rounded=0;whiteSpace=wrap;html=1;fontSize=18;fontFamily=Times New Roman;" vertex="1" parent="1">
          <mxGeometry x="1440" y="380" width="40" height="40" as="geometry" />
        </mxCell>
        <mxCell id="uBOc1RX5nlmYOmLGZq0Z-417" value="0" style="text;html=1;align=center;verticalAlign=middle;whiteSpace=wrap;rounded=0;fontFamily=Times New Roman;fontSize=14;" vertex="1" parent="1">
          <mxGeometry x="1160" y="420" width="40" height="20" as="geometry" />
        </mxCell>
        <mxCell id="uBOc1RX5nlmYOmLGZq0Z-418" value="1" style="text;html=1;align=center;verticalAlign=middle;whiteSpace=wrap;rounded=0;fontFamily=Times New Roman;fontSize=14;" vertex="1" parent="1">
          <mxGeometry x="1200" y="420" width="40" height="20" as="geometry" />
        </mxCell>
        <mxCell id="uBOc1RX5nlmYOmLGZq0Z-419" value="2" style="text;html=1;align=center;verticalAlign=middle;whiteSpace=wrap;rounded=0;fontFamily=Times New Roman;fontSize=14;" vertex="1" parent="1">
          <mxGeometry x="1240" y="420" width="40" height="20" as="geometry" />
        </mxCell>
        <mxCell id="uBOc1RX5nlmYOmLGZq0Z-420" value="3" style="text;html=1;align=center;verticalAlign=middle;whiteSpace=wrap;rounded=0;fontFamily=Times New Roman;fontSize=14;" vertex="1" parent="1">
          <mxGeometry x="1280" y="420" width="40" height="20" as="geometry" />
        </mxCell>
        <mxCell id="uBOc1RX5nlmYOmLGZq0Z-463" style="edgeStyle=orthogonalEdgeStyle;rounded=0;orthogonalLoop=1;jettySize=auto;html=1;exitX=0;exitY=1;exitDx=0;exitDy=0;entryX=0;entryY=0;entryDx=0;entryDy=0;fontSize=14;" edge="1" parent="1" source="uBOc1RX5nlmYOmLGZq0Z-421" target="uBOc1RX5nlmYOmLGZq0Z-450">
          <mxGeometry relative="1" as="geometry" />
        </mxCell>
        <mxCell id="uBOc1RX5nlmYOmLGZq0Z-421" value="4" style="text;html=1;align=center;verticalAlign=middle;whiteSpace=wrap;rounded=0;fontFamily=Times New Roman;fontSize=14;" vertex="1" parent="1">
          <mxGeometry x="1320" y="420" width="40" height="20" as="geometry" />
        </mxCell>
        <mxCell id="uBOc1RX5nlmYOmLGZq0Z-422" value="5" style="text;html=1;align=center;verticalAlign=middle;whiteSpace=wrap;rounded=0;fontFamily=Times New Roman;fontSize=14;" vertex="1" parent="1">
          <mxGeometry x="1360" y="420" width="40" height="20" as="geometry" />
        </mxCell>
        <mxCell id="uBOc1RX5nlmYOmLGZq0Z-423" value="6" style="text;html=1;align=center;verticalAlign=middle;whiteSpace=wrap;rounded=0;fontFamily=Times New Roman;fontSize=14;" vertex="1" parent="1">
          <mxGeometry x="1400" y="420" width="40" height="20" as="geometry" />
        </mxCell>
        <mxCell id="uBOc1RX5nlmYOmLGZq0Z-424" value="7" style="text;html=1;align=center;verticalAlign=middle;whiteSpace=wrap;rounded=0;fontFamily=Times New Roman;fontSize=14;" vertex="1" parent="1">
          <mxGeometry x="1440" y="420" width="40" height="20" as="geometry" />
        </mxCell>
        <mxCell id="uBOc1RX5nlmYOmLGZq0Z-425" value="Unsorted Array" style="rounded=1;whiteSpace=wrap;html=1;fontFamily=Times New Roman;fontSize=18;" vertex="1" parent="1">
          <mxGeometry x="960" y="380" width="160" height="40" as="geometry" />
        </mxCell>
        <mxCell id="uBOc1RX5nlmYOmLGZq0Z-426" value="Using Counting Sort, sort the array based on the first digit or the unit place" style="rounded=1;whiteSpace=wrap;html=1;fontFamily=Times New Roman;fontSize=18;strokeColor=none;" vertex="1" parent="1">
          <mxGeometry x="1000" y="320" width="640" height="40" as="geometry" />
        </mxCell>
        <mxCell id="uBOc1RX5nlmYOmLGZq0Z-446" value="170" style="rounded=0;whiteSpace=wrap;html=1;fontSize=18;fontFamily=Times New Roman;" vertex="1" parent="1">
          <mxGeometry x="1160" y="490" width="40" height="40" as="geometry" />
        </mxCell>
        <mxCell id="uBOc1RX5nlmYOmLGZq0Z-447" value="90" style="rounded=0;whiteSpace=wrap;html=1;fontSize=18;fontFamily=Times New Roman;" vertex="1" parent="1">
          <mxGeometry x="1200" y="490" width="40" height="40" as="geometry" />
        </mxCell>
        <mxCell id="uBOc1RX5nlmYOmLGZq0Z-448" value="802" style="rounded=0;whiteSpace=wrap;html=1;fontSize=18;fontFamily=Times New Roman;" vertex="1" parent="1">
          <mxGeometry x="1240" y="490" width="40" height="40" as="geometry" />
        </mxCell>
        <mxCell id="uBOc1RX5nlmYOmLGZq0Z-449" value="2" style="rounded=0;whiteSpace=wrap;html=1;fontSize=18;fontFamily=Times New Roman;" vertex="1" parent="1">
          <mxGeometry x="1280" y="490" width="40" height="40" as="geometry" />
        </mxCell>
        <mxCell id="uBOc1RX5nlmYOmLGZq0Z-450" value="24" style="rounded=0;whiteSpace=wrap;html=1;fontSize=18;fontFamily=Times New Roman;" vertex="1" parent="1">
          <mxGeometry x="1320" y="490" width="40" height="40" as="geometry" />
        </mxCell>
        <mxCell id="uBOc1RX5nlmYOmLGZq0Z-451" value="45" style="rounded=0;whiteSpace=wrap;html=1;fontSize=18;fontFamily=Times New Roman;" vertex="1" parent="1">
          <mxGeometry x="1360" y="490" width="40" height="40" as="geometry" />
        </mxCell>
        <mxCell id="uBOc1RX5nlmYOmLGZq0Z-452" value="75" style="rounded=0;whiteSpace=wrap;html=1;fontSize=18;fontFamily=Times New Roman;" vertex="1" parent="1">
          <mxGeometry x="1400" y="490" width="40" height="40" as="geometry" />
        </mxCell>
        <mxCell id="uBOc1RX5nlmYOmLGZq0Z-453" value="66" style="rounded=0;whiteSpace=wrap;html=1;fontSize=18;fontFamily=Times New Roman;" vertex="1" parent="1">
          <mxGeometry x="1440" y="490" width="40" height="40" as="geometry" />
        </mxCell>
        <mxCell id="uBOc1RX5nlmYOmLGZq0Z-454" value="0" style="text;html=1;align=center;verticalAlign=middle;whiteSpace=wrap;rounded=0;fontFamily=Times New Roman;fontSize=14;" vertex="1" parent="1">
          <mxGeometry x="1160" y="530" width="40" height="20" as="geometry" />
        </mxCell>
        <mxCell id="uBOc1RX5nlmYOmLGZq0Z-455" value="1" style="text;html=1;align=center;verticalAlign=middle;whiteSpace=wrap;rounded=0;fontFamily=Times New Roman;fontSize=14;" vertex="1" parent="1">
          <mxGeometry x="1200" y="530" width="40" height="20" as="geometry" />
        </mxCell>
        <mxCell id="uBOc1RX5nlmYOmLGZq0Z-456" value="2" style="text;html=1;align=center;verticalAlign=middle;whiteSpace=wrap;rounded=0;fontFamily=Times New Roman;fontSize=14;" vertex="1" parent="1">
          <mxGeometry x="1240" y="530" width="40" height="20" as="geometry" />
        </mxCell>
        <mxCell id="uBOc1RX5nlmYOmLGZq0Z-457" value="3" style="text;html=1;align=center;verticalAlign=middle;whiteSpace=wrap;rounded=0;fontFamily=Times New Roman;fontSize=14;" vertex="1" parent="1">
          <mxGeometry x="1280" y="530" width="40" height="20" as="geometry" />
        </mxCell>
        <mxCell id="uBOc1RX5nlmYOmLGZq0Z-458" value="4" style="text;html=1;align=center;verticalAlign=middle;whiteSpace=wrap;rounded=0;fontFamily=Times New Roman;fontSize=14;" vertex="1" parent="1">
          <mxGeometry x="1320" y="530" width="40" height="20" as="geometry" />
        </mxCell>
        <mxCell id="uBOc1RX5nlmYOmLGZq0Z-459" value="5" style="text;html=1;align=center;verticalAlign=middle;whiteSpace=wrap;rounded=0;fontFamily=Times New Roman;fontSize=14;" vertex="1" parent="1">
          <mxGeometry x="1360" y="530" width="40" height="20" as="geometry" />
        </mxCell>
        <mxCell id="uBOc1RX5nlmYOmLGZq0Z-460" value="6" style="text;html=1;align=center;verticalAlign=middle;whiteSpace=wrap;rounded=0;fontFamily=Times New Roman;fontSize=14;" vertex="1" parent="1">
          <mxGeometry x="1400" y="530" width="40" height="20" as="geometry" />
        </mxCell>
        <mxCell id="uBOc1RX5nlmYOmLGZq0Z-461" value="7" style="text;html=1;align=center;verticalAlign=middle;whiteSpace=wrap;rounded=0;fontFamily=Times New Roman;fontSize=14;" vertex="1" parent="1">
          <mxGeometry x="1440" y="530" width="40" height="20" as="geometry" />
        </mxCell>
        <mxCell id="uBOc1RX5nlmYOmLGZq0Z-462" value="Sorted for Unit Digit" style="rounded=1;whiteSpace=wrap;html=1;fontFamily=Times New Roman;fontSize=18;" vertex="1" parent="1">
          <mxGeometry x="960" y="490" width="160" height="40" as="geometry" />
        </mxCell>
        <mxCell id="uBOc1RX5nlmYOmLGZq0Z-464" value="Sort based on the unit digit" style="rounded=1;whiteSpace=wrap;html=1;fontFamily=Times New Roman;fontSize=14;strokeColor=none;" vertex="1" parent="1">
          <mxGeometry x="1160" y="450" width="320" height="20" as="geometry" />
        </mxCell>
        <mxCell id="uBOc1RX5nlmYOmLGZq0Z-466" value="" style="rounded=0;whiteSpace=wrap;html=1;strokeColor=none;" vertex="1" parent="1">
          <mxGeometry x="960" y="600" width="720" height="230" as="geometry" />
        </mxCell>
        <mxCell id="uBOc1RX5nlmYOmLGZq0Z-484" value="Unsorted Array" style="rounded=1;whiteSpace=wrap;html=1;fontFamily=Times New Roman;fontSize=18;" vertex="1" parent="1">
          <mxGeometry x="960" y="660" width="160" height="40" as="geometry" />
        </mxCell>
        <mxCell id="uBOc1RX5nlmYOmLGZq0Z-485" value="Using Counting Sort, sort the array based on the 2nd digit or the 10&#39;s place" style="rounded=1;whiteSpace=wrap;html=1;fontFamily=Times New Roman;fontSize=18;strokeColor=none;" vertex="1" parent="1">
          <mxGeometry x="1000" y="600" width="640" height="40" as="geometry" />
        </mxCell>
        <mxCell id="uBOc1RX5nlmYOmLGZq0Z-486" value="802" style="rounded=0;whiteSpace=wrap;html=1;fontSize=18;fontFamily=Times New Roman;" vertex="1" parent="1">
          <mxGeometry x="1160" y="770" width="40" height="40" as="geometry" />
        </mxCell>
        <mxCell id="uBOc1RX5nlmYOmLGZq0Z-487" value="2" style="rounded=0;whiteSpace=wrap;html=1;fontSize=18;fontFamily=Times New Roman;" vertex="1" parent="1">
          <mxGeometry x="1200" y="770" width="40" height="40" as="geometry" />
        </mxCell>
        <mxCell id="uBOc1RX5nlmYOmLGZq0Z-488" value="24" style="rounded=0;whiteSpace=wrap;html=1;fontSize=18;fontFamily=Times New Roman;" vertex="1" parent="1">
          <mxGeometry x="1240" y="770" width="40" height="40" as="geometry" />
        </mxCell>
        <mxCell id="uBOc1RX5nlmYOmLGZq0Z-489" value="45" style="rounded=0;whiteSpace=wrap;html=1;fontSize=18;fontFamily=Times New Roman;" vertex="1" parent="1">
          <mxGeometry x="1280" y="770" width="40" height="40" as="geometry" />
        </mxCell>
        <mxCell id="uBOc1RX5nlmYOmLGZq0Z-490" value="66" style="rounded=0;whiteSpace=wrap;html=1;fontSize=18;fontFamily=Times New Roman;" vertex="1" parent="1">
          <mxGeometry x="1320" y="770" width="40" height="40" as="geometry" />
        </mxCell>
        <mxCell id="uBOc1RX5nlmYOmLGZq0Z-491" value="170" style="rounded=0;whiteSpace=wrap;html=1;fontSize=18;fontFamily=Times New Roman;" vertex="1" parent="1">
          <mxGeometry x="1360" y="770" width="40" height="40" as="geometry" />
        </mxCell>
        <mxCell id="uBOc1RX5nlmYOmLGZq0Z-492" value="75" style="rounded=0;whiteSpace=wrap;html=1;fontSize=18;fontFamily=Times New Roman;" vertex="1" parent="1">
          <mxGeometry x="1400" y="770" width="40" height="40" as="geometry" />
        </mxCell>
        <mxCell id="uBOc1RX5nlmYOmLGZq0Z-493" value="90" style="rounded=0;whiteSpace=wrap;html=1;fontSize=18;fontFamily=Times New Roman;" vertex="1" parent="1">
          <mxGeometry x="1440" y="770" width="40" height="40" as="geometry" />
        </mxCell>
        <mxCell id="uBOc1RX5nlmYOmLGZq0Z-494" value="0" style="text;html=1;align=center;verticalAlign=middle;whiteSpace=wrap;rounded=0;fontFamily=Times New Roman;fontSize=14;" vertex="1" parent="1">
          <mxGeometry x="1160" y="810" width="40" height="20" as="geometry" />
        </mxCell>
        <mxCell id="uBOc1RX5nlmYOmLGZq0Z-495" value="1" style="text;html=1;align=center;verticalAlign=middle;whiteSpace=wrap;rounded=0;fontFamily=Times New Roman;fontSize=14;" vertex="1" parent="1">
          <mxGeometry x="1200" y="810" width="40" height="20" as="geometry" />
        </mxCell>
        <mxCell id="uBOc1RX5nlmYOmLGZq0Z-496" value="2" style="text;html=1;align=center;verticalAlign=middle;whiteSpace=wrap;rounded=0;fontFamily=Times New Roman;fontSize=14;" vertex="1" parent="1">
          <mxGeometry x="1240" y="810" width="40" height="20" as="geometry" />
        </mxCell>
        <mxCell id="uBOc1RX5nlmYOmLGZq0Z-497" value="3" style="text;html=1;align=center;verticalAlign=middle;whiteSpace=wrap;rounded=0;fontFamily=Times New Roman;fontSize=14;" vertex="1" parent="1">
          <mxGeometry x="1280" y="810" width="40" height="20" as="geometry" />
        </mxCell>
        <mxCell id="uBOc1RX5nlmYOmLGZq0Z-498" value="4" style="text;html=1;align=center;verticalAlign=middle;whiteSpace=wrap;rounded=0;fontFamily=Times New Roman;fontSize=14;" vertex="1" parent="1">
          <mxGeometry x="1320" y="810" width="40" height="20" as="geometry" />
        </mxCell>
        <mxCell id="uBOc1RX5nlmYOmLGZq0Z-499" value="5" style="text;html=1;align=center;verticalAlign=middle;whiteSpace=wrap;rounded=0;fontFamily=Times New Roman;fontSize=14;" vertex="1" parent="1">
          <mxGeometry x="1360" y="810" width="40" height="20" as="geometry" />
        </mxCell>
        <mxCell id="uBOc1RX5nlmYOmLGZq0Z-500" value="6" style="text;html=1;align=center;verticalAlign=middle;whiteSpace=wrap;rounded=0;fontFamily=Times New Roman;fontSize=14;" vertex="1" parent="1">
          <mxGeometry x="1400" y="810" width="40" height="20" as="geometry" />
        </mxCell>
        <mxCell id="uBOc1RX5nlmYOmLGZq0Z-501" value="7" style="text;html=1;align=center;verticalAlign=middle;whiteSpace=wrap;rounded=0;fontFamily=Times New Roman;fontSize=14;" vertex="1" parent="1">
          <mxGeometry x="1440" y="810" width="40" height="20" as="geometry" />
        </mxCell>
        <mxCell id="uBOc1RX5nlmYOmLGZq0Z-502" value="Sorted for 10&#39;s Digit" style="rounded=1;whiteSpace=wrap;html=1;fontFamily=Times New Roman;fontSize=18;" vertex="1" parent="1">
          <mxGeometry x="960" y="770" width="160" height="40" as="geometry" />
        </mxCell>
        <mxCell id="uBOc1RX5nlmYOmLGZq0Z-520" value="1&lt;u&gt;7&lt;/u&gt;0" style="rounded=0;whiteSpace=wrap;html=1;fontSize=18;fontFamily=Times New Roman;" vertex="1" parent="1">
          <mxGeometry x="1160" y="660" width="40" height="40" as="geometry" />
        </mxCell>
        <mxCell id="uBOc1RX5nlmYOmLGZq0Z-521" value="&lt;u&gt;9&lt;/u&gt;0" style="rounded=0;whiteSpace=wrap;html=1;fontSize=18;fontFamily=Times New Roman;" vertex="1" parent="1">
          <mxGeometry x="1200" y="660" width="40" height="40" as="geometry" />
        </mxCell>
        <mxCell id="uBOc1RX5nlmYOmLGZq0Z-522" value="8&lt;u&gt;0&lt;/u&gt;2" style="rounded=0;whiteSpace=wrap;html=1;fontSize=18;fontFamily=Times New Roman;" vertex="1" parent="1">
          <mxGeometry x="1240" y="660" width="40" height="40" as="geometry" />
        </mxCell>
        <mxCell id="uBOc1RX5nlmYOmLGZq0Z-523" value="2" style="rounded=0;whiteSpace=wrap;html=1;fontSize=18;fontFamily=Times New Roman;" vertex="1" parent="1">
          <mxGeometry x="1280" y="660" width="40" height="40" as="geometry" />
        </mxCell>
        <mxCell id="uBOc1RX5nlmYOmLGZq0Z-524" value="&lt;u&gt;2&lt;/u&gt;4" style="rounded=0;whiteSpace=wrap;html=1;fontSize=18;fontFamily=Times New Roman;" vertex="1" parent="1">
          <mxGeometry x="1320" y="660" width="40" height="40" as="geometry" />
        </mxCell>
        <mxCell id="uBOc1RX5nlmYOmLGZq0Z-525" value="&lt;u&gt;4&lt;/u&gt;5" style="rounded=0;whiteSpace=wrap;html=1;fontSize=18;fontFamily=Times New Roman;" vertex="1" parent="1">
          <mxGeometry x="1360" y="660" width="40" height="40" as="geometry" />
        </mxCell>
        <mxCell id="uBOc1RX5nlmYOmLGZq0Z-526" value="&lt;u&gt;7&lt;/u&gt;5" style="rounded=0;whiteSpace=wrap;html=1;fontSize=18;fontFamily=Times New Roman;" vertex="1" parent="1">
          <mxGeometry x="1400" y="660" width="40" height="40" as="geometry" />
        </mxCell>
        <mxCell id="uBOc1RX5nlmYOmLGZq0Z-527" value="&lt;u&gt;6&lt;/u&gt;6" style="rounded=0;whiteSpace=wrap;html=1;fontSize=18;fontFamily=Times New Roman;" vertex="1" parent="1">
          <mxGeometry x="1440" y="660" width="40" height="40" as="geometry" />
        </mxCell>
        <mxCell id="uBOc1RX5nlmYOmLGZq0Z-528" value="0" style="text;html=1;align=center;verticalAlign=middle;whiteSpace=wrap;rounded=0;fontFamily=Times New Roman;fontSize=14;" vertex="1" parent="1">
          <mxGeometry x="1160" y="700" width="40" height="20" as="geometry" />
        </mxCell>
        <mxCell id="uBOc1RX5nlmYOmLGZq0Z-529" value="1" style="text;html=1;align=center;verticalAlign=middle;whiteSpace=wrap;rounded=0;fontFamily=Times New Roman;fontSize=14;" vertex="1" parent="1">
          <mxGeometry x="1200" y="700" width="40" height="20" as="geometry" />
        </mxCell>
        <mxCell id="uBOc1RX5nlmYOmLGZq0Z-530" value="2" style="text;html=1;align=center;verticalAlign=middle;whiteSpace=wrap;rounded=0;fontFamily=Times New Roman;fontSize=14;" vertex="1" parent="1">
          <mxGeometry x="1240" y="700" width="40" height="20" as="geometry" />
        </mxCell>
        <mxCell id="uBOc1RX5nlmYOmLGZq0Z-536" style="edgeStyle=orthogonalEdgeStyle;rounded=0;orthogonalLoop=1;jettySize=auto;html=1;exitX=0;exitY=1;exitDx=0;exitDy=0;entryX=0;entryY=0;entryDx=0;entryDy=0;" edge="1" parent="1" source="uBOc1RX5nlmYOmLGZq0Z-532" target="uBOc1RX5nlmYOmLGZq0Z-490">
          <mxGeometry relative="1" as="geometry" />
        </mxCell>
        <mxCell id="uBOc1RX5nlmYOmLGZq0Z-531" value="3" style="text;html=1;align=center;verticalAlign=middle;whiteSpace=wrap;rounded=0;fontFamily=Times New Roman;fontSize=14;" vertex="1" parent="1">
          <mxGeometry x="1280" y="700" width="40" height="20" as="geometry" />
        </mxCell>
        <mxCell id="uBOc1RX5nlmYOmLGZq0Z-532" value="4" style="text;html=1;align=center;verticalAlign=middle;whiteSpace=wrap;rounded=0;fontFamily=Times New Roman;fontSize=14;" vertex="1" parent="1">
          <mxGeometry x="1320" y="700" width="40" height="20" as="geometry" />
        </mxCell>
        <mxCell id="uBOc1RX5nlmYOmLGZq0Z-533" value="5" style="text;html=1;align=center;verticalAlign=middle;whiteSpace=wrap;rounded=0;fontFamily=Times New Roman;fontSize=14;" vertex="1" parent="1">
          <mxGeometry x="1360" y="700" width="40" height="20" as="geometry" />
        </mxCell>
        <mxCell id="uBOc1RX5nlmYOmLGZq0Z-534" value="6" style="text;html=1;align=center;verticalAlign=middle;whiteSpace=wrap;rounded=0;fontFamily=Times New Roman;fontSize=14;" vertex="1" parent="1">
          <mxGeometry x="1400" y="700" width="40" height="20" as="geometry" />
        </mxCell>
        <mxCell id="uBOc1RX5nlmYOmLGZq0Z-535" value="7" style="text;html=1;align=center;verticalAlign=middle;whiteSpace=wrap;rounded=0;fontFamily=Times New Roman;fontSize=14;" vertex="1" parent="1">
          <mxGeometry x="1440" y="700" width="40" height="20" as="geometry" />
        </mxCell>
        <mxCell id="uBOc1RX5nlmYOmLGZq0Z-503" value="Sort based on the 10&#39;s digit" style="rounded=1;whiteSpace=wrap;html=1;fontFamily=Times New Roman;fontSize=14;strokeColor=none;" vertex="1" parent="1">
          <mxGeometry x="1160" y="730" width="320" height="20" as="geometry" />
        </mxCell>
        <mxCell id="uBOc1RX5nlmYOmLGZq0Z-537" value="" style="rounded=0;whiteSpace=wrap;html=1;strokeColor=none;" vertex="1" parent="1">
          <mxGeometry x="960" y="880" width="720" height="230" as="geometry" />
        </mxCell>
        <mxCell id="uBOc1RX5nlmYOmLGZq0Z-538" value="Unsorted Array" style="rounded=1;whiteSpace=wrap;html=1;fontFamily=Times New Roman;fontSize=18;" vertex="1" parent="1">
          <mxGeometry x="960" y="940" width="160" height="40" as="geometry" />
        </mxCell>
        <mxCell id="uBOc1RX5nlmYOmLGZq0Z-539" value="Using Counting Sort, sort the array based on the 3rd digit or the 100&#39;s place" style="rounded=1;whiteSpace=wrap;html=1;fontFamily=Times New Roman;fontSize=18;strokeColor=none;" vertex="1" parent="1">
          <mxGeometry x="1000" y="880" width="640" height="40" as="geometry" />
        </mxCell>
        <mxCell id="uBOc1RX5nlmYOmLGZq0Z-540" value="2" style="rounded=0;whiteSpace=wrap;html=1;fontSize=18;fontFamily=Times New Roman;" vertex="1" parent="1">
          <mxGeometry x="1160" y="1050" width="40" height="40" as="geometry" />
        </mxCell>
        <mxCell id="uBOc1RX5nlmYOmLGZq0Z-541" value="24" style="rounded=0;whiteSpace=wrap;html=1;fontSize=18;fontFamily=Times New Roman;" vertex="1" parent="1">
          <mxGeometry x="1200" y="1050" width="40" height="40" as="geometry" />
        </mxCell>
        <mxCell id="uBOc1RX5nlmYOmLGZq0Z-542" value="45" style="rounded=0;whiteSpace=wrap;html=1;fontSize=18;fontFamily=Times New Roman;" vertex="1" parent="1">
          <mxGeometry x="1240" y="1050" width="40" height="40" as="geometry" />
        </mxCell>
        <mxCell id="uBOc1RX5nlmYOmLGZq0Z-543" value="66" style="rounded=0;whiteSpace=wrap;html=1;fontSize=18;fontFamily=Times New Roman;" vertex="1" parent="1">
          <mxGeometry x="1280" y="1050" width="40" height="40" as="geometry" />
        </mxCell>
        <mxCell id="uBOc1RX5nlmYOmLGZq0Z-544" value="75" style="rounded=0;whiteSpace=wrap;html=1;fontSize=18;fontFamily=Times New Roman;" vertex="1" parent="1">
          <mxGeometry x="1320" y="1050" width="40" height="40" as="geometry" />
        </mxCell>
        <mxCell id="uBOc1RX5nlmYOmLGZq0Z-545" value="90" style="rounded=0;whiteSpace=wrap;html=1;fontSize=18;fontFamily=Times New Roman;" vertex="1" parent="1">
          <mxGeometry x="1360" y="1050" width="40" height="40" as="geometry" />
        </mxCell>
        <mxCell id="uBOc1RX5nlmYOmLGZq0Z-546" value="170" style="rounded=0;whiteSpace=wrap;html=1;fontSize=18;fontFamily=Times New Roman;" vertex="1" parent="1">
          <mxGeometry x="1400" y="1050" width="40" height="40" as="geometry" />
        </mxCell>
        <mxCell id="uBOc1RX5nlmYOmLGZq0Z-547" value="802" style="rounded=0;whiteSpace=wrap;html=1;fontSize=18;fontFamily=Times New Roman;" vertex="1" parent="1">
          <mxGeometry x="1440" y="1050" width="40" height="40" as="geometry" />
        </mxCell>
        <mxCell id="uBOc1RX5nlmYOmLGZq0Z-548" value="0" style="text;html=1;align=center;verticalAlign=middle;whiteSpace=wrap;rounded=0;fontFamily=Times New Roman;fontSize=14;" vertex="1" parent="1">
          <mxGeometry x="1160" y="1090" width="40" height="20" as="geometry" />
        </mxCell>
        <mxCell id="uBOc1RX5nlmYOmLGZq0Z-549" value="1" style="text;html=1;align=center;verticalAlign=middle;whiteSpace=wrap;rounded=0;fontFamily=Times New Roman;fontSize=14;" vertex="1" parent="1">
          <mxGeometry x="1200" y="1090" width="40" height="20" as="geometry" />
        </mxCell>
        <mxCell id="uBOc1RX5nlmYOmLGZq0Z-550" value="2" style="text;html=1;align=center;verticalAlign=middle;whiteSpace=wrap;rounded=0;fontFamily=Times New Roman;fontSize=14;" vertex="1" parent="1">
          <mxGeometry x="1240" y="1090" width="40" height="20" as="geometry" />
        </mxCell>
        <mxCell id="uBOc1RX5nlmYOmLGZq0Z-551" value="3" style="text;html=1;align=center;verticalAlign=middle;whiteSpace=wrap;rounded=0;fontFamily=Times New Roman;fontSize=14;" vertex="1" parent="1">
          <mxGeometry x="1280" y="1090" width="40" height="20" as="geometry" />
        </mxCell>
        <mxCell id="uBOc1RX5nlmYOmLGZq0Z-552" value="4" style="text;html=1;align=center;verticalAlign=middle;whiteSpace=wrap;rounded=0;fontFamily=Times New Roman;fontSize=14;" vertex="1" parent="1">
          <mxGeometry x="1320" y="1090" width="40" height="20" as="geometry" />
        </mxCell>
        <mxCell id="uBOc1RX5nlmYOmLGZq0Z-553" value="5" style="text;html=1;align=center;verticalAlign=middle;whiteSpace=wrap;rounded=0;fontFamily=Times New Roman;fontSize=14;" vertex="1" parent="1">
          <mxGeometry x="1360" y="1090" width="40" height="20" as="geometry" />
        </mxCell>
        <mxCell id="uBOc1RX5nlmYOmLGZq0Z-554" value="6" style="text;html=1;align=center;verticalAlign=middle;whiteSpace=wrap;rounded=0;fontFamily=Times New Roman;fontSize=14;" vertex="1" parent="1">
          <mxGeometry x="1400" y="1090" width="40" height="20" as="geometry" />
        </mxCell>
        <mxCell id="uBOc1RX5nlmYOmLGZq0Z-555" value="7" style="text;html=1;align=center;verticalAlign=middle;whiteSpace=wrap;rounded=0;fontFamily=Times New Roman;fontSize=14;" vertex="1" parent="1">
          <mxGeometry x="1440" y="1090" width="40" height="20" as="geometry" />
        </mxCell>
        <mxCell id="uBOc1RX5nlmYOmLGZq0Z-556" value="Sorted for 100&#39;s Digit" style="rounded=1;whiteSpace=wrap;html=1;fontFamily=Times New Roman;fontSize=18;" vertex="1" parent="1">
          <mxGeometry x="960" y="1050" width="160" height="40" as="geometry" />
        </mxCell>
        <mxCell id="uBOc1RX5nlmYOmLGZq0Z-568" style="edgeStyle=orthogonalEdgeStyle;rounded=0;orthogonalLoop=1;jettySize=auto;html=1;exitX=0;exitY=1;exitDx=0;exitDy=0;entryX=0;entryY=0;entryDx=0;entryDy=0;" edge="1" target="uBOc1RX5nlmYOmLGZq0Z-544" parent="1">
          <mxGeometry relative="1" as="geometry">
            <mxPoint x="1319.9999999999998" y="1000" as="sourcePoint" />
          </mxGeometry>
        </mxCell>
        <mxCell id="uBOc1RX5nlmYOmLGZq0Z-574" value="Sort based on the 100&#39;s digit" style="rounded=1;whiteSpace=wrap;html=1;fontFamily=Times New Roman;fontSize=14;strokeColor=none;" vertex="1" parent="1">
          <mxGeometry x="1160" y="1010" width="320" height="20" as="geometry" />
        </mxCell>
        <mxCell id="uBOc1RX5nlmYOmLGZq0Z-575" value="&lt;u&gt;8&lt;/u&gt;02" style="rounded=0;whiteSpace=wrap;html=1;fontSize=18;fontFamily=Times New Roman;" vertex="1" parent="1">
          <mxGeometry x="1160" y="940" width="40" height="40" as="geometry" />
        </mxCell>
        <mxCell id="uBOc1RX5nlmYOmLGZq0Z-576" value="2" style="rounded=0;whiteSpace=wrap;html=1;fontSize=18;fontFamily=Times New Roman;" vertex="1" parent="1">
          <mxGeometry x="1200" y="940" width="40" height="40" as="geometry" />
        </mxCell>
        <mxCell id="uBOc1RX5nlmYOmLGZq0Z-577" value="24" style="rounded=0;whiteSpace=wrap;html=1;fontSize=18;fontFamily=Times New Roman;" vertex="1" parent="1">
          <mxGeometry x="1240" y="940" width="40" height="40" as="geometry" />
        </mxCell>
        <mxCell id="uBOc1RX5nlmYOmLGZq0Z-578" value="45" style="rounded=0;whiteSpace=wrap;html=1;fontSize=18;fontFamily=Times New Roman;" vertex="1" parent="1">
          <mxGeometry x="1280" y="940" width="40" height="40" as="geometry" />
        </mxCell>
        <mxCell id="uBOc1RX5nlmYOmLGZq0Z-579" value="66" style="rounded=0;whiteSpace=wrap;html=1;fontSize=18;fontFamily=Times New Roman;" vertex="1" parent="1">
          <mxGeometry x="1320" y="940" width="40" height="40" as="geometry" />
        </mxCell>
        <mxCell id="uBOc1RX5nlmYOmLGZq0Z-580" value="&lt;u&gt;1&lt;/u&gt;70" style="rounded=0;whiteSpace=wrap;html=1;fontSize=18;fontFamily=Times New Roman;" vertex="1" parent="1">
          <mxGeometry x="1360" y="940" width="40" height="40" as="geometry" />
        </mxCell>
        <mxCell id="uBOc1RX5nlmYOmLGZq0Z-581" value="75" style="rounded=0;whiteSpace=wrap;html=1;fontSize=18;fontFamily=Times New Roman;" vertex="1" parent="1">
          <mxGeometry x="1400" y="940" width="40" height="40" as="geometry" />
        </mxCell>
        <mxCell id="uBOc1RX5nlmYOmLGZq0Z-582" value="90" style="rounded=0;whiteSpace=wrap;html=1;fontSize=18;fontFamily=Times New Roman;" vertex="1" parent="1">
          <mxGeometry x="1440" y="940" width="40" height="40" as="geometry" />
        </mxCell>
        <mxCell id="uBOc1RX5nlmYOmLGZq0Z-583" value="0" style="text;html=1;align=center;verticalAlign=middle;whiteSpace=wrap;rounded=0;fontFamily=Times New Roman;fontSize=14;" vertex="1" parent="1">
          <mxGeometry x="1160" y="980" width="40" height="20" as="geometry" />
        </mxCell>
        <mxCell id="uBOc1RX5nlmYOmLGZq0Z-584" value="1" style="text;html=1;align=center;verticalAlign=middle;whiteSpace=wrap;rounded=0;fontFamily=Times New Roman;fontSize=14;" vertex="1" parent="1">
          <mxGeometry x="1200" y="980" width="40" height="20" as="geometry" />
        </mxCell>
        <mxCell id="uBOc1RX5nlmYOmLGZq0Z-585" value="2" style="text;html=1;align=center;verticalAlign=middle;whiteSpace=wrap;rounded=0;fontFamily=Times New Roman;fontSize=14;" vertex="1" parent="1">
          <mxGeometry x="1240" y="980" width="40" height="20" as="geometry" />
        </mxCell>
        <mxCell id="uBOc1RX5nlmYOmLGZq0Z-586" value="3" style="text;html=1;align=center;verticalAlign=middle;whiteSpace=wrap;rounded=0;fontFamily=Times New Roman;fontSize=14;" vertex="1" parent="1">
          <mxGeometry x="1280" y="980" width="40" height="20" as="geometry" />
        </mxCell>
        <mxCell id="uBOc1RX5nlmYOmLGZq0Z-587" value="4" style="text;html=1;align=center;verticalAlign=middle;whiteSpace=wrap;rounded=0;fontFamily=Times New Roman;fontSize=14;" vertex="1" parent="1">
          <mxGeometry x="1320" y="980" width="40" height="20" as="geometry" />
        </mxCell>
        <mxCell id="uBOc1RX5nlmYOmLGZq0Z-588" value="5" style="text;html=1;align=center;verticalAlign=middle;whiteSpace=wrap;rounded=0;fontFamily=Times New Roman;fontSize=14;" vertex="1" parent="1">
          <mxGeometry x="1360" y="980" width="40" height="20" as="geometry" />
        </mxCell>
        <mxCell id="uBOc1RX5nlmYOmLGZq0Z-589" value="6" style="text;html=1;align=center;verticalAlign=middle;whiteSpace=wrap;rounded=0;fontFamily=Times New Roman;fontSize=14;" vertex="1" parent="1">
          <mxGeometry x="1400" y="980" width="40" height="20" as="geometry" />
        </mxCell>
        <mxCell id="uBOc1RX5nlmYOmLGZq0Z-590" value="7" style="text;html=1;align=center;verticalAlign=middle;whiteSpace=wrap;rounded=0;fontFamily=Times New Roman;fontSize=14;" vertex="1" parent="1">
          <mxGeometry x="1440" y="980" width="40" height="20" as="geometry" />
        </mxCell>
        <mxCell id="uBOc1RX5nlmYOmLGZq0Z-591" value="2" style="rounded=0;whiteSpace=wrap;html=1;fontSize=18;fontFamily=Times New Roman;fillColor=#CCFFCC;" vertex="1" parent="1">
          <mxGeometry x="1160" y="1160" width="40" height="40" as="geometry" />
        </mxCell>
        <mxCell id="uBOc1RX5nlmYOmLGZq0Z-592" value="24" style="rounded=0;whiteSpace=wrap;html=1;fontSize=18;fontFamily=Times New Roman;fillColor=#CCFFCC;" vertex="1" parent="1">
          <mxGeometry x="1200" y="1160" width="40" height="40" as="geometry" />
        </mxCell>
        <mxCell id="uBOc1RX5nlmYOmLGZq0Z-593" value="45" style="rounded=0;whiteSpace=wrap;html=1;fontSize=18;fontFamily=Times New Roman;fillColor=#CCFFCC;" vertex="1" parent="1">
          <mxGeometry x="1240" y="1160" width="40" height="40" as="geometry" />
        </mxCell>
        <mxCell id="uBOc1RX5nlmYOmLGZq0Z-594" value="66" style="rounded=0;whiteSpace=wrap;html=1;fontSize=18;fontFamily=Times New Roman;fillColor=#CCFFCC;" vertex="1" parent="1">
          <mxGeometry x="1280" y="1160" width="40" height="40" as="geometry" />
        </mxCell>
        <mxCell id="uBOc1RX5nlmYOmLGZq0Z-595" value="75" style="rounded=0;whiteSpace=wrap;html=1;fontSize=18;fontFamily=Times New Roman;fillColor=#CCFFCC;" vertex="1" parent="1">
          <mxGeometry x="1320" y="1160" width="40" height="40" as="geometry" />
        </mxCell>
        <mxCell id="uBOc1RX5nlmYOmLGZq0Z-596" value="90" style="rounded=0;whiteSpace=wrap;html=1;fontSize=18;fontFamily=Times New Roman;fillColor=#CCFFCC;" vertex="1" parent="1">
          <mxGeometry x="1360" y="1160" width="40" height="40" as="geometry" />
        </mxCell>
        <mxCell id="uBOc1RX5nlmYOmLGZq0Z-597" value="170" style="rounded=0;whiteSpace=wrap;html=1;fontSize=18;fontFamily=Times New Roman;fillColor=#CCFFCC;" vertex="1" parent="1">
          <mxGeometry x="1400" y="1160" width="40" height="40" as="geometry" />
        </mxCell>
        <mxCell id="uBOc1RX5nlmYOmLGZq0Z-598" value="802" style="rounded=0;whiteSpace=wrap;html=1;fontSize=18;fontFamily=Times New Roman;fillColor=#CCFFCC;" vertex="1" parent="1">
          <mxGeometry x="1440" y="1160" width="40" height="40" as="geometry" />
        </mxCell>
        <mxCell id="uBOc1RX5nlmYOmLGZq0Z-599" value="0" style="text;html=1;align=center;verticalAlign=middle;whiteSpace=wrap;rounded=0;fontFamily=Times New Roman;fontSize=14;" vertex="1" parent="1">
          <mxGeometry x="1160" y="1200" width="40" height="20" as="geometry" />
        </mxCell>
        <mxCell id="uBOc1RX5nlmYOmLGZq0Z-600" value="1" style="text;html=1;align=center;verticalAlign=middle;whiteSpace=wrap;rounded=0;fontFamily=Times New Roman;fontSize=14;" vertex="1" parent="1">
          <mxGeometry x="1200" y="1200" width="40" height="20" as="geometry" />
        </mxCell>
        <mxCell id="uBOc1RX5nlmYOmLGZq0Z-601" value="2" style="text;html=1;align=center;verticalAlign=middle;whiteSpace=wrap;rounded=0;fontFamily=Times New Roman;fontSize=14;" vertex="1" parent="1">
          <mxGeometry x="1240" y="1200" width="40" height="20" as="geometry" />
        </mxCell>
        <mxCell id="uBOc1RX5nlmYOmLGZq0Z-602" value="3" style="text;html=1;align=center;verticalAlign=middle;whiteSpace=wrap;rounded=0;fontFamily=Times New Roman;fontSize=14;" vertex="1" parent="1">
          <mxGeometry x="1280" y="1200" width="40" height="20" as="geometry" />
        </mxCell>
        <mxCell id="uBOc1RX5nlmYOmLGZq0Z-603" value="4" style="text;html=1;align=center;verticalAlign=middle;whiteSpace=wrap;rounded=0;fontFamily=Times New Roman;fontSize=14;" vertex="1" parent="1">
          <mxGeometry x="1320" y="1200" width="40" height="20" as="geometry" />
        </mxCell>
        <mxCell id="uBOc1RX5nlmYOmLGZq0Z-604" value="5" style="text;html=1;align=center;verticalAlign=middle;whiteSpace=wrap;rounded=0;fontFamily=Times New Roman;fontSize=14;" vertex="1" parent="1">
          <mxGeometry x="1360" y="1200" width="40" height="20" as="geometry" />
        </mxCell>
        <mxCell id="uBOc1RX5nlmYOmLGZq0Z-605" value="6" style="text;html=1;align=center;verticalAlign=middle;whiteSpace=wrap;rounded=0;fontFamily=Times New Roman;fontSize=14;" vertex="1" parent="1">
          <mxGeometry x="1400" y="1200" width="40" height="20" as="geometry" />
        </mxCell>
        <mxCell id="uBOc1RX5nlmYOmLGZq0Z-606" value="7" style="text;html=1;align=center;verticalAlign=middle;whiteSpace=wrap;rounded=0;fontFamily=Times New Roman;fontSize=14;" vertex="1" parent="1">
          <mxGeometry x="1440" y="1200" width="40" height="20" as="geometry" />
        </mxCell>
        <mxCell id="uBOc1RX5nlmYOmLGZq0Z-607" value="Sorted Array" style="rounded=1;whiteSpace=wrap;html=1;fontFamily=Times New Roman;fontSize=18;" vertex="1" parent="1">
          <mxGeometry x="960" y="1160" width="160" height="40" as="geometry" />
        </mxCell>
      </root>
    </mxGraphModel>
  </diagram>
  <diagram id="DvTEMGn4OmUKJEt0KxLx" name="Page-2">
    <mxGraphModel dx="330" dy="182" grid="1" gridSize="10" guides="1" tooltips="1" connect="1" arrows="1" fold="1" page="1" pageScale="1" pageWidth="850" pageHeight="1100" math="0" shadow="0">
      <root>
        <mxCell id="0" />
        <mxCell id="1" parent="0" />
        <mxCell id="Yfdo2rvNL_NQWI6_z8yh-1" value="23" style="rounded=0;whiteSpace=wrap;html=1;fontSize=18;fontFamily=Times New Roman;" vertex="1" parent="1">
          <mxGeometry x="240" y="200" width="40" height="40" as="geometry" />
        </mxCell>
        <mxCell id="Yfdo2rvNL_NQWI6_z8yh-2" value="2" style="rounded=0;whiteSpace=wrap;html=1;fontSize=18;fontFamily=Times New Roman;" vertex="1" parent="1">
          <mxGeometry x="280" y="200" width="40" height="40" as="geometry" />
        </mxCell>
        <mxCell id="Yfdo2rvNL_NQWI6_z8yh-3" value="10" style="rounded=0;whiteSpace=wrap;html=1;fontSize=18;fontFamily=Times New Roman;" vertex="1" parent="1">
          <mxGeometry x="320" y="200" width="40" height="40" as="geometry" />
        </mxCell>
        <mxCell id="Yfdo2rvNL_NQWI6_z8yh-4" value="5" style="rounded=0;whiteSpace=wrap;html=1;fontSize=18;fontFamily=Times New Roman;" vertex="1" parent="1">
          <mxGeometry x="360" y="200" width="40" height="40" as="geometry" />
        </mxCell>
        <mxCell id="Yfdo2rvNL_NQWI6_z8yh-9" value="0" style="text;html=1;align=center;verticalAlign=middle;whiteSpace=wrap;rounded=0;fontFamily=Times New Roman;fontSize=14;" vertex="1" parent="1">
          <mxGeometry x="240" y="240" width="40" height="20" as="geometry" />
        </mxCell>
        <mxCell id="Yfdo2rvNL_NQWI6_z8yh-10" value="1" style="text;html=1;align=center;verticalAlign=middle;whiteSpace=wrap;rounded=0;fontFamily=Times New Roman;fontSize=14;" vertex="1" parent="1">
          <mxGeometry x="280" y="240" width="40" height="20" as="geometry" />
        </mxCell>
        <mxCell id="Yfdo2rvNL_NQWI6_z8yh-11" value="2" style="text;html=1;align=center;verticalAlign=middle;whiteSpace=wrap;rounded=0;fontFamily=Times New Roman;fontSize=14;" vertex="1" parent="1">
          <mxGeometry x="320" y="240" width="40" height="20" as="geometry" />
        </mxCell>
        <mxCell id="Yfdo2rvNL_NQWI6_z8yh-12" value="3" style="text;html=1;align=center;verticalAlign=middle;whiteSpace=wrap;rounded=0;fontFamily=Times New Roman;fontSize=14;" vertex="1" parent="1">
          <mxGeometry x="360" y="240" width="40" height="20" as="geometry" />
        </mxCell>
        <mxCell id="Yfdo2rvNL_NQWI6_z8yh-19" value="1" style="rounded=0;whiteSpace=wrap;html=1;fontSize=18;fontFamily=Times New Roman;" vertex="1" parent="1">
          <mxGeometry x="400" y="200" width="40" height="40" as="geometry" />
        </mxCell>
        <mxCell id="Yfdo2rvNL_NQWI6_z8yh-20" value="4" style="text;html=1;align=center;verticalAlign=middle;whiteSpace=wrap;rounded=0;fontFamily=Times New Roman;fontSize=14;" vertex="1" parent="1">
          <mxGeometry x="400" y="240" width="40" height="20" as="geometry" />
        </mxCell>
        <mxCell id="Yfdo2rvNL_NQWI6_z8yh-21" value="i" style="text;html=1;align=center;verticalAlign=middle;whiteSpace=wrap;rounded=0;fontFamily=Times New Roman;fontSize=14;" vertex="1" parent="1">
          <mxGeometry x="280" y="180" width="40" height="20" as="geometry" />
        </mxCell>
      </root>
    </mxGraphModel>
  </diagram>
</mxfile>
